<svg width="980" height="160" viewBox="0 0 980 160" fill="none" xmlns="http://www.w3.org/2000/svg">
<g clip-path="url(#clip0)">
<rect width="980" height="160" fill="white"/>
<rect width="980" height="160" fill="#007EFF"/>
<g opacity="0.1">
<g clip-path="url(#clip1)">
<path d="M599.983 131.93L586.456 145.455L587.313 146.313L600.84 132.788L599.983 131.93Z" fill="white"/>
<path d="M613.516 131.959L599.989 145.484L600.847 146.341L614.374 132.816L613.516 131.959Z" fill="white"/>
<path d="M627.036 131.928L613.509 145.454L614.366 146.311L627.893 132.786L627.036 131.928Z" fill="white"/>
<path d="M640.563 131.919L627.036 145.444L627.894 146.302L641.421 132.776L640.563 131.919Z" fill="white"/>
<path d="M654.154 131.949L640.626 145.474L641.483 146.332L655.012 132.807L654.154 131.949Z" fill="white"/>
<path d="M981.875 -236.168L708.746 36.9272L709.698 37.88L982.828 -235.215L981.875 -236.168Z" fill="white"/>
<path d="M767.284 -229.015L494.155 44.0798L495.108 45.0326L768.237 -228.062L767.284 -229.015Z" fill="white"/>
<path d="M757.473 142.477L484.344 415.572L485.297 416.525L758.426 143.43L757.473 142.477Z" fill="white"/>
<path d="M223.115 147.176L-50.0139 420.271L-49.0609 421.224L224.068 148.129L223.115 147.176Z" fill="white"/>
<path d="M250.304 128.669L-22.825 401.763L-21.872 402.716L251.257 129.621L250.304 128.669Z" fill="white"/>
<path d="M46.944 12.5057L33.1979 36.3091C36.1695 27.4426 40.8863 19.3712 46.944 12.5057Z" fill="white"/>
<path d="M58.1903 2.24457L29.977 51.1046C30.1589 49.3327 30.4082 47.5877 30.7317 45.8629L54.0193 5.53919C55.3669 4.38035 56.755 3.28214 58.1903 2.24457Z" fill="white"/>
<path d="M66.5323 -2.9837L29.6333 60.9144C29.5997 60.0924 29.5862 59.2772 29.5862 58.4485C29.5862 57.9769 29.5929 57.5052 29.5997 57.0336L63.1564 -1.07699C64.2683 -1.744 65.3868 -2.37733 66.5323 -2.9837Z" fill="white"/>
<path d="M73.7827 -6.31873L30.3678 68.8712C30.2128 67.8 30.0713 66.7287 29.9635 65.644L70.7909 -5.06557C71.768 -5.5035 72.772 -5.92122 73.7827 -6.31873Z" fill="white"/>
<path d="M80.3795 -8.52185L31.7492 75.7031C31.5133 74.7733 31.2977 73.8368 31.1023 72.8936L77.6371 -7.69314C78.54 -7.99632 79.4564 -8.26583 80.3795 -8.52185Z" fill="white"/>
<path d="M86.5248 -9.93677L33.5954 81.7331C33.299 80.9044 33.0159 80.0824 32.7599 79.2402L83.9508 -9.41797C84.7998 -9.61336 85.6556 -9.78854 86.5248 -9.93677Z" fill="white"/>
<path d="M92.3131 -10.752L35.7787 87.1567C35.435 86.4156 35.1183 85.661 34.8083 84.8997L89.8805 -10.4825C90.6891 -10.5835 91.5045 -10.6711 92.3131 -10.752Z" fill="white"/>
<path d="M97.825 -11.0753L38.2584 92.0819C37.881 91.4081 37.5171 90.7344 37.1667 90.0471L95.5137 -10.9945C96.2819 -11.0349 97.0501 -11.0618 97.825 -11.0753Z" fill="white"/>
<path d="M103.088 -10.9676L40.9806 96.5959C40.5763 95.9828 40.172 95.3562 39.788 94.7229L100.871 -11.0619C101.612 -11.0484 102.353 -11.0147 103.088 -10.9676Z" fill="white"/>
<path d="M108.148 -10.5094L43.9185 100.726C43.4805 100.16 43.056 99.5874 42.6382 99.0012L106.012 -10.752C106.726 -10.6778 107.441 -10.6037 108.148 -10.5094Z" fill="white"/>
<path d="M113.006 -9.69421L47.0518 104.526C46.5869 104.007 46.1354 103.475 45.6974 102.949L110.965 -10.0782C111.645 -9.96371 112.333 -9.84243 113.006 -9.69421Z" fill="white"/>
<path d="M117.683 -8.58255L50.3604 108.016C49.8752 107.538 49.3968 107.059 48.9251 106.567L115.708 -9.0946C116.376 -8.93964 117.029 -8.76446 117.683 -8.58255Z" fill="white"/>
<path d="M122.191 -7.16767L53.8373 111.209C53.3252 110.778 52.8198 110.334 52.3279 109.882L120.284 -7.80774C120.931 -7.60562 121.564 -7.39675 122.191 -7.16767Z" fill="white"/>
<path d="M126.537 -5.47652L57.4693 114.127C56.937 113.736 56.4181 113.325 55.906 112.921L124.711 -6.23785C125.324 -5.99531 125.937 -5.73928 126.537 -5.47652Z" fill="white"/>
<path d="M130.728 -3.50916L61.2697 116.781C60.7171 116.424 60.1713 116.06 59.6323 115.683L128.963 -4.3783C129.556 -4.10206 130.149 -3.81234 130.728 -3.50916Z" fill="white"/>
<path d="M134.764 -1.27912L65.2183 119.16C64.6388 118.843 64.0796 118.52 63.5135 118.176L133.06 -2.26953C133.632 -1.94613 134.198 -1.616 134.764 -1.27912Z" fill="white"/>
<path d="M138.639 1.22052L69.3152 121.282C68.7155 120.999 68.1225 120.709 67.5363 120.413L136.995 0.122314C137.554 0.472662 138.107 0.836488 138.639 1.22052Z" fill="white"/>
<path d="M142.379 3.98284L73.5738 123.135C72.9607 122.892 72.3407 122.636 71.741 122.373L140.809 2.76337C141.334 3.16761 141.86 3.57186 142.379 3.98284Z" fill="white"/>
<path d="M145.943 7.02142L77.9874 124.711C77.354 124.509 76.7139 124.3 76.0872 124.071L144.441 5.70087C144.946 6.11859 145.445 6.57001 145.943 7.02142Z" fill="white"/>
<path d="M149.353 10.343L82.5695 125.998C81.9091 125.843 81.2555 125.668 80.5952 125.479L147.918 8.8877C148.409 9.36605 148.881 9.85113 149.353 10.343Z" fill="white"/>
<path d="M152.58 13.9611L87.32 126.989C86.6327 126.874 85.9521 126.746 85.2783 126.611L151.233 12.3845C151.691 12.8966 152.142 13.4288 152.58 13.9611Z" fill="white"/>
<path d="M155.633 17.8957L92.2592 127.649C91.5449 127.581 90.8306 127.507 90.1231 127.413L154.353 16.1777C154.797 16.7369 155.222 17.3163 155.633 17.8957Z" fill="white"/>
<path d="M158.483 22.1807L97.4005 127.966C96.6593 127.945 95.9181 127.912 95.1836 127.864L157.291 20.301C157.708 20.9208 158.106 21.5474 158.483 22.1807Z" fill="white"/>
<path d="M161.104 26.8565L102.764 127.898C101.996 127.939 101.221 127.966 100.453 127.979L160.02 24.8218C160.397 25.4888 160.761 26.1625 161.104 26.8565Z" fill="white"/>
<path d="M163.47 31.9904L108.391 127.379C107.582 127.487 106.78 127.575 105.958 127.656L162.493 29.7468C162.836 30.4812 163.166 31.2291 163.47 31.9904Z" fill="white"/>
<path d="M165.525 37.6499L114.327 126.315C113.478 126.51 112.616 126.685 111.753 126.84L164.689 35.1705C164.986 35.9858 165.262 36.8212 165.525 37.6499Z" fill="white"/>
<path d="M167.182 44.0034L120.648 124.59C119.745 124.893 118.828 125.17 117.898 125.419L166.529 41.1938C166.771 42.1304 166.987 43.0602 167.182 44.0034Z" fill="white"/>
<path d="M168.314 51.2462L127.487 121.962C126.497 122.407 125.499 122.818 124.495 123.222L167.917 48.0256C168.072 49.0902 168.213 50.1682 168.314 51.2462Z" fill="white"/>
<path d="M168.692 58.4485C168.692 58.9201 168.685 59.3917 168.678 59.8566L135.122 117.974C134.023 118.641 132.891 119.281 131.746 119.881L168.651 55.9825C168.678 56.7978 168.692 57.6265 168.692 58.4485Z" fill="white"/>
<path d="M168.301 65.7855C168.119 67.5575 167.87 69.2957 167.546 71.0205L144.252 111.371C142.911 112.523 141.509 113.628 140.074 114.666L168.301 65.7855Z" fill="white"/>
<path d="M165.093 80.5742C162.115 89.4542 157.392 97.5391 151.334 104.411L165.093 80.5742Z" fill="white"/>
<path d="M682.187 215.952L640.996 174.766L682.187 133.58L723.378 174.766L682.187 215.952ZM642.903 174.766L682.187 214.046L721.471 174.766L682.187 135.487L642.903 174.766Z" fill="white"/>
<path d="M320.061 21.3857L277.529 -21.1411L320.061 -63.668L362.6 -21.1411L320.061 21.3857ZM279.429 -21.1479L320.061 19.479L360.693 -21.1479L320.061 -61.7747L279.429 -21.1479Z" fill="white"/>
<path d="M566.721 90.9499L553.494 77.7243L566.721 64.4987L579.948 77.7243L566.721 90.9499ZM555.4 77.7243L566.721 89.0432L578.041 77.7243L566.721 66.4054L555.4 77.7243Z" fill="white"/>
<path d="M450.993 177.489L437.772 164.263L450.993 151.037L464.22 164.263L450.993 177.489ZM439.672 164.263L450.993 175.582L462.313 164.263L450.993 152.944L439.672 164.263Z" fill="white"/>
<path opacity="0.21" d="M623.864 157.637C543.295 157.637 477.98 222.943 477.98 303.503C477.98 384.063 543.295 449.369 623.864 449.369C704.434 449.369 769.749 384.063 769.749 303.503C769.749 222.943 704.434 157.637 623.864 157.637ZM623.864 415.102C562.222 415.102 512.251 365.137 512.251 303.503C512.251 241.869 562.222 191.904 623.864 191.904C685.507 191.904 735.478 241.869 735.478 303.503C735.478 365.137 685.507 415.102 623.864 415.102Z" fill="white"/>
</g>
</g>
<path d="M72.0352 63.1621C72.0352 65.4238 71.2148 67.1875 69.5742 68.4531C67.9336 69.7188 65.707 70.3516 62.8945 70.3516C59.8477 70.3516 57.5039 69.959 55.8633 69.1738V66.291C56.918 66.7363 58.0664 67.0879 59.3086 67.3457C60.5508 67.6035 61.7812 67.7324 63 67.7324C64.9922 67.7324 66.4922 67.3574 67.5 66.6074C68.5078 65.8457 69.0117 64.791 69.0117 63.4434C69.0117 62.5527 68.8301 61.8262 68.4668 61.2637C68.1152 60.6895 67.5176 60.1621 66.6738 59.6816C65.8418 59.2012 64.5703 58.6562 62.8594 58.0469C60.4688 57.1914 58.7578 56.1777 57.7266 55.0059C56.707 53.834 56.1973 52.3047 56.1973 50.418C56.1973 48.4375 56.9414 46.8613 58.4297 45.6895C59.918 44.5176 61.8867 43.9316 64.3359 43.9316C66.8906 43.9316 69.2402 44.4004 71.3848 45.3379L70.4531 47.9395C68.332 47.0488 66.2695 46.6035 64.2656 46.6035C62.6836 46.6035 61.4473 46.9434 60.5566 47.623C59.666 48.3027 59.2207 49.2461 59.2207 50.4531C59.2207 51.3438 59.3848 52.0762 59.7129 52.6504C60.041 53.2129 60.5918 53.7344 61.3652 54.2148C62.1504 54.6836 63.3457 55.2051 64.9512 55.7793C67.6465 56.7402 69.498 57.7715 70.5059 58.873C71.5254 59.9746 72.0352 61.4043 72.0352 63.1621ZM79.5938 50.7344V63.2324C79.5938 64.8027 79.9512 65.9746 80.666 66.748C81.3809 67.5215 82.5 67.9082 84.0234 67.9082C86.0391 67.9082 87.5098 67.3574 88.4355 66.2559C89.373 65.1543 89.8418 63.3555 89.8418 60.8594V50.7344H92.7598V70H90.3516L89.9297 67.416H89.7715C89.1738 68.3652 88.3418 69.0918 87.2754 69.5957C86.2207 70.0996 85.0137 70.3516 83.6543 70.3516C81.3105 70.3516 79.5527 69.7949 78.3809 68.6816C77.2207 67.5684 76.6406 65.7871 76.6406 63.3379V50.7344H79.5938ZM107.93 70.3516C106.676 70.3516 105.527 70.123 104.484 69.666C103.453 69.1973 102.586 68.4824 101.883 67.5215H101.672C101.812 68.6465 101.883 69.7129 101.883 70.7207V78.6484H98.9648V50.7344H101.338L101.742 53.3711H101.883C102.633 52.3164 103.506 51.5547 104.502 51.0859C105.498 50.6172 106.641 50.3828 107.93 50.3828C110.484 50.3828 112.453 51.2559 113.836 53.002C115.23 54.748 115.928 57.1973 115.928 60.3496C115.928 63.5137 115.219 65.9746 113.801 67.7324C112.395 69.4785 110.438 70.3516 107.93 70.3516ZM107.508 52.8613C105.539 52.8613 104.115 53.4062 103.236 54.4961C102.357 55.5859 101.906 57.3203 101.883 59.6992V60.3496C101.883 63.0566 102.334 64.9961 103.236 66.168C104.139 67.3281 105.586 67.9082 107.578 67.9082C109.242 67.9082 110.543 67.2344 111.48 65.8867C112.43 64.5391 112.904 62.6816 112.904 60.3145C112.904 57.9121 112.43 56.0723 111.48 54.7949C110.543 53.5059 109.219 52.8613 107.508 52.8613ZM130.008 70.3516C128.754 70.3516 127.605 70.123 126.562 69.666C125.531 69.1973 124.664 68.4824 123.961 67.5215H123.75C123.891 68.6465 123.961 69.7129 123.961 70.7207V78.6484H121.043V50.7344H123.416L123.82 53.3711H123.961C124.711 52.3164 125.584 51.5547 126.58 51.0859C127.576 50.6172 128.719 50.3828 130.008 50.3828C132.562 50.3828 134.531 51.2559 135.914 53.002C137.309 54.748 138.006 57.1973 138.006 60.3496C138.006 63.5137 137.297 65.9746 135.879 67.7324C134.473 69.4785 132.516 70.3516 130.008 70.3516ZM129.586 52.8613C127.617 52.8613 126.193 53.4062 125.314 54.4961C124.436 55.5859 123.984 57.3203 123.961 59.6992V60.3496C123.961 63.0566 124.412 64.9961 125.314 66.168C126.217 67.3281 127.664 67.9082 129.656 67.9082C131.32 67.9082 132.621 67.2344 133.559 65.8867C134.508 64.5391 134.982 62.6816 134.982 60.3145C134.982 57.9121 134.508 56.0723 133.559 54.7949C132.621 53.5059 131.297 52.8613 129.586 52.8613ZM159.75 60.3496C159.75 63.4902 158.959 65.9453 157.377 67.7148C155.795 69.4727 153.609 70.3516 150.82 70.3516C149.098 70.3516 147.568 69.9473 146.232 69.1387C144.896 68.3301 143.865 67.1699 143.139 65.6582C142.412 64.1465 142.049 62.377 142.049 60.3496C142.049 57.209 142.834 54.7656 144.404 53.0195C145.975 51.2617 148.154 50.3828 150.943 50.3828C153.639 50.3828 155.777 51.2793 157.359 53.0723C158.953 54.8652 159.75 57.291 159.75 60.3496ZM145.072 60.3496C145.072 62.8105 145.564 64.6855 146.549 65.9746C147.533 67.2637 148.98 67.9082 150.891 67.9082C152.801 67.9082 154.248 67.2695 155.232 65.9922C156.229 64.7031 156.727 62.8223 156.727 60.3496C156.727 57.9004 156.229 56.043 155.232 54.7773C154.248 53.5 152.789 52.8613 150.855 52.8613C148.945 52.8613 147.504 53.4883 146.531 54.7422C145.559 55.9961 145.072 57.8652 145.072 60.3496ZM173.672 50.3828C174.527 50.3828 175.295 50.4531 175.975 50.5938L175.57 53.3008C174.773 53.125 174.07 53.0371 173.461 53.0371C171.902 53.0371 170.566 53.6699 169.453 54.9355C168.352 56.2012 167.801 57.7773 167.801 59.6641V70H164.883V50.7344H167.291L167.625 54.3027H167.766C168.48 53.0488 169.342 52.082 170.35 51.4023C171.357 50.7227 172.465 50.3828 173.672 50.3828ZM185.801 67.9434C186.316 67.9434 186.814 67.9082 187.295 67.8379C187.775 67.7559 188.156 67.6738 188.438 67.5918V69.8242C188.121 69.9766 187.652 70.0996 187.031 70.1934C186.422 70.2988 185.871 70.3516 185.379 70.3516C181.652 70.3516 179.789 68.3887 179.789 64.4629V53.002H177.029V51.5957L179.789 50.3828L181.02 46.2695H182.707V50.7344H188.297V53.002H182.707V64.3398C182.707 65.5 182.982 66.3906 183.533 67.0117C184.084 67.6328 184.84 67.9434 185.801 67.9434ZM200.443 70.3516C197.596 70.3516 195.346 69.4844 193.693 67.75C192.053 66.0156 191.232 63.6074 191.232 60.5254C191.232 57.4199 191.994 54.9531 193.518 53.125C195.053 51.2969 197.109 50.3828 199.688 50.3828C202.102 50.3828 204.012 51.1797 205.418 52.7734C206.824 54.3555 207.527 56.4473 207.527 59.0488V60.8945H194.256C194.314 63.1562 194.883 64.873 195.961 66.0449C197.051 67.2168 198.58 67.8027 200.549 67.8027C202.623 67.8027 204.674 67.3691 206.701 66.502V69.1035C205.67 69.5488 204.691 69.8652 203.766 70.0527C202.852 70.252 201.744 70.3516 200.443 70.3516ZM199.652 52.8262C198.105 52.8262 196.869 53.3301 195.943 54.3379C195.029 55.3457 194.49 56.7402 194.326 58.5215H204.398C204.398 56.6816 203.988 55.2754 203.168 54.3027C202.348 53.3184 201.176 52.8262 199.652 52.8262ZM225.633 67.416H225.475C224.127 69.373 222.111 70.3516 219.428 70.3516C216.908 70.3516 214.945 69.4902 213.539 67.7676C212.145 66.0449 211.447 63.5957 211.447 60.4199C211.447 57.2441 212.15 54.7773 213.557 53.0195C214.963 51.2617 216.92 50.3828 219.428 50.3828C222.041 50.3828 224.045 51.332 225.439 53.2305H225.668L225.545 51.8418L225.475 50.4883V42.6484H228.393V70H226.02L225.633 67.416ZM219.797 67.9082C221.789 67.9082 223.23 67.3691 224.121 66.291C225.023 65.2012 225.475 63.4492 225.475 61.0352V60.4199C225.475 57.6895 225.018 55.7441 224.104 54.584C223.201 53.4121 221.754 52.8262 219.762 52.8262C218.051 52.8262 216.738 53.4941 215.824 54.8301C214.922 56.1543 214.471 58.0293 214.471 60.4551C214.471 62.916 214.922 64.7734 215.824 66.0273C216.727 67.2812 218.051 67.9082 219.797 67.9082ZM247.377 59.3125V70H244.389V44.3008H251.438C254.59 44.3008 256.916 44.9043 258.416 46.1113C259.928 47.3184 260.684 49.1348 260.684 51.5605C260.684 54.959 258.961 57.2559 255.516 58.4512L262.494 70H258.961L252.738 59.3125H247.377ZM247.377 56.7461H251.473C253.582 56.7461 255.129 56.3301 256.113 55.498C257.098 54.6543 257.59 53.3945 257.59 51.7188C257.59 50.0195 257.086 48.7949 256.078 48.0449C255.082 47.2949 253.477 46.9199 251.262 46.9199H247.377V56.7461ZM274.342 70.3516C271.494 70.3516 269.244 69.4844 267.592 67.75C265.951 66.0156 265.131 63.6074 265.131 60.5254C265.131 57.4199 265.893 54.9531 267.416 53.125C268.951 51.2969 271.008 50.3828 273.586 50.3828C276 50.3828 277.91 51.1797 279.316 52.7734C280.723 54.3555 281.426 56.4473 281.426 59.0488V60.8945H268.154C268.213 63.1562 268.781 64.873 269.859 66.0449C270.949 67.2168 272.479 67.8027 274.447 67.8027C276.521 67.8027 278.572 67.3691 280.6 66.502V69.1035C279.568 69.5488 278.59 69.8652 277.664 70.0527C276.75 70.252 275.643 70.3516 274.342 70.3516ZM273.551 52.8262C272.004 52.8262 270.768 53.3301 269.842 54.3379C268.928 55.3457 268.389 56.7402 268.225 58.5215H278.297C278.297 56.6816 277.887 55.2754 277.066 54.3027C276.246 53.3184 275.074 52.8262 273.551 52.8262ZM295.383 70.3516C294.129 70.3516 292.98 70.123 291.938 69.666C290.906 69.1973 290.039 68.4824 289.336 67.5215H289.125C289.266 68.6465 289.336 69.7129 289.336 70.7207V78.6484H286.418V50.7344H288.791L289.195 53.3711H289.336C290.086 52.3164 290.959 51.5547 291.955 51.0859C292.951 50.6172 294.094 50.3828 295.383 50.3828C297.938 50.3828 299.906 51.2559 301.289 53.002C302.684 54.748 303.381 57.1973 303.381 60.3496C303.381 63.5137 302.672 65.9746 301.254 67.7324C299.848 69.4785 297.891 70.3516 295.383 70.3516ZM294.961 52.8613C292.992 52.8613 291.568 53.4062 290.689 54.4961C289.811 55.5859 289.359 57.3203 289.336 59.6992V60.3496C289.336 63.0566 289.787 64.9961 290.689 66.168C291.592 67.3281 293.039 67.9082 295.031 67.9082C296.695 67.9082 297.996 67.2344 298.934 65.8867C299.883 64.5391 300.357 62.6816 300.357 60.3145C300.357 57.9121 299.883 56.0723 298.934 54.7949C297.996 53.5059 296.672 52.8613 294.961 52.8613ZM325.125 60.3496C325.125 63.4902 324.334 65.9453 322.752 67.7148C321.17 69.4727 318.984 70.3516 316.195 70.3516C314.473 70.3516 312.943 69.9473 311.607 69.1387C310.271 68.3301 309.24 67.1699 308.514 65.6582C307.787 64.1465 307.424 62.377 307.424 60.3496C307.424 57.209 308.209 54.7656 309.779 53.0195C311.35 51.2617 313.529 50.3828 316.318 50.3828C319.014 50.3828 321.152 51.2793 322.734 53.0723C324.328 54.8652 325.125 57.291 325.125 60.3496ZM310.447 60.3496C310.447 62.8105 310.939 64.6855 311.924 65.9746C312.908 67.2637 314.355 67.9082 316.266 67.9082C318.176 67.9082 319.623 67.2695 320.607 65.9922C321.604 64.7031 322.102 62.8223 322.102 60.3496C322.102 57.9004 321.604 56.043 320.607 54.7773C319.623 53.5 318.164 52.8613 316.23 52.8613C314.32 52.8613 312.879 53.4883 311.906 54.7422C310.934 55.9961 310.447 57.8652 310.447 60.3496ZM342.686 64.7441C342.686 66.5371 342.018 67.9199 340.682 68.8926C339.346 69.8652 337.471 70.3516 335.057 70.3516C332.502 70.3516 330.51 69.9473 329.08 69.1387V66.4316C330.006 66.9004 330.996 67.2695 332.051 67.5391C333.117 67.8086 334.143 67.9434 335.127 67.9434C336.65 67.9434 337.822 67.7031 338.643 67.2227C339.463 66.7305 339.873 65.9863 339.873 64.9902C339.873 64.2402 339.545 63.6016 338.889 63.0742C338.244 62.5352 336.979 61.9023 335.092 61.1758C333.299 60.5078 332.021 59.9277 331.26 59.4355C330.51 58.9316 329.947 58.3633 329.572 57.7305C329.209 57.0977 329.027 56.3418 329.027 55.4629C329.027 53.8926 329.666 52.6562 330.943 51.7539C332.221 50.8398 333.973 50.3828 336.199 50.3828C338.273 50.3828 340.301 50.8047 342.281 51.6484L341.244 54.0215C339.311 53.2246 337.559 52.8262 335.988 52.8262C334.605 52.8262 333.562 53.043 332.859 53.4766C332.156 53.9102 331.805 54.5078 331.805 55.2695C331.805 55.7852 331.934 56.2246 332.191 56.5879C332.461 56.9512 332.889 57.2969 333.475 57.625C334.061 57.9531 335.186 58.4277 336.85 59.0488C339.135 59.8809 340.676 60.7188 341.473 61.5625C342.281 62.4062 342.686 63.4668 342.686 64.7441ZM350.367 70H347.449V50.7344H350.367V70ZM347.203 45.5137C347.203 44.8457 347.367 44.3594 347.695 44.0547C348.023 43.7383 348.434 43.5801 348.926 43.5801C349.395 43.5801 349.799 43.7383 350.139 44.0547C350.479 44.3711 350.648 44.8574 350.648 45.5137C350.648 46.1699 350.479 46.6621 350.139 46.9902C349.799 47.3066 349.395 47.4648 348.926 47.4648C348.434 47.4648 348.023 47.3066 347.695 46.9902C347.367 46.6621 347.203 46.1699 347.203 45.5137ZM362.777 67.9434C363.293 67.9434 363.791 67.9082 364.271 67.8379C364.752 67.7559 365.133 67.6738 365.414 67.5918V69.8242C365.098 69.9766 364.629 70.0996 364.008 70.1934C363.398 70.2988 362.848 70.3516 362.355 70.3516C358.629 70.3516 356.766 68.3887 356.766 64.4629V53.002H354.006V51.5957L356.766 50.3828L357.996 46.2695H359.684V50.7344H365.273V53.002H359.684V64.3398C359.684 65.5 359.959 66.3906 360.51 67.0117C361.061 67.6328 361.816 67.9434 362.777 67.9434ZM385.91 60.3496C385.91 63.4902 385.119 65.9453 383.537 67.7148C381.955 69.4727 379.77 70.3516 376.98 70.3516C375.258 70.3516 373.729 69.9473 372.393 69.1387C371.057 68.3301 370.025 67.1699 369.299 65.6582C368.572 64.1465 368.209 62.377 368.209 60.3496C368.209 57.209 368.994 54.7656 370.564 53.0195C372.135 51.2617 374.314 50.3828 377.104 50.3828C379.799 50.3828 381.938 51.2793 383.52 53.0723C385.113 54.8652 385.91 57.291 385.91 60.3496ZM371.232 60.3496C371.232 62.8105 371.725 64.6855 372.709 65.9746C373.693 67.2637 375.141 67.9082 377.051 67.9082C378.961 67.9082 380.408 67.2695 381.393 65.9922C382.389 64.7031 382.887 62.8223 382.887 60.3496C382.887 57.9004 382.389 56.043 381.393 54.7773C380.408 53.5 378.949 52.8613 377.016 52.8613C375.105 52.8613 373.664 53.4883 372.691 54.7422C371.719 55.9961 371.232 57.8652 371.232 60.3496ZM399.832 50.3828C400.688 50.3828 401.455 50.4531 402.135 50.5938L401.73 53.3008C400.934 53.125 400.23 53.0371 399.621 53.0371C398.062 53.0371 396.727 53.6699 395.613 54.9355C394.512 56.2012 393.961 57.7773 393.961 59.6641V70H391.043V50.7344H393.451L393.785 54.3027H393.926C394.641 53.0488 395.502 52.082 396.51 51.4023C397.518 50.7227 398.625 50.3828 399.832 50.3828ZM402.68 50.7344H405.809L410.027 61.7207C410.953 64.2285 411.527 66.0391 411.75 67.1523H411.891C412.043 66.5547 412.359 65.5352 412.84 64.0938C413.332 62.6406 414.926 58.1875 417.621 50.7344H420.75L412.471 72.6719C411.65 74.8398 410.689 76.375 409.588 77.2773C408.498 78.1914 407.156 78.6484 405.562 78.6484C404.672 78.6484 403.793 78.5488 402.926 78.3496V76.0117C403.57 76.1523 404.291 76.2227 405.088 76.2227C407.092 76.2227 408.521 75.0977 409.377 72.8477L410.449 70.1055L402.68 50.7344Z" fill="white"/>
<g clip-path="url(#clip2)">
<path d="M884.213 75.7146C884.213 74.2548 885.416 73.0484 886.873 73.0484C888.329 73.0484 889.533 74.2548 889.533 75.7146C889.533 77.1743 888.329 78.3807 886.873 78.3807C885.416 78.384 884.213 77.1743 884.213 75.7146ZM884.213 85.2627C884.213 83.803 885.416 82.5966 886.873 82.5966C888.329 82.5966 889.533 83.803 889.533 85.2627C889.533 86.7224 888.329 87.9289 886.873 87.9289C885.416 87.9289 884.213 86.7224 884.213 85.2627Z" fill="#007EFF"/>
<path d="M860.695 89.7819L857.609 84.4862L854.523 89.7819H849.761L855.228 80.3703L850.024 71.4321H854.786L857.612 76.2811L860.439 71.4321H865.201L859.997 80.3703L865.464 89.7819H860.695Z" fill="white"/>
<path d="M865.587 85.6127L869.195 83.5164C869.85 85.0361 870.974 86.0592 873.039 86.0592C875.028 86.0592 875.523 85.2727 875.523 84.5662C875.523 83.4397 874.476 82.9932 871.729 82.2333C869.009 81.4735 866.342 80.1637 866.342 76.651C866.342 73.1117 869.325 71.0688 872.487 71.0688C875.497 71.0688 877.851 72.5118 879.184 75.2113L875.653 77.2809C875.024 75.9712 874.163 75.158 872.487 75.158C871.18 75.158 870.525 75.8145 870.525 76.5477C870.525 77.3876 870.971 77.9641 873.821 78.8273C876.594 79.6671 879.707 80.6369 879.707 84.5162C879.707 88.0555 876.88 90.1518 872.906 90.1518C869.065 90.1485 866.608 88.3121 865.587 85.6127Z" fill="white"/>
<path d="M849.239 102.696C849.239 97.2971 853.239 93.1545 858.76 93.1545C862.082 93.1545 865.011 94.8076 866.608 97.4004L863 99.4967C862.188 98.0803 860.619 97.2438 858.763 97.2438C855.521 97.2438 853.426 99.42 853.426 102.696C853.426 105.972 855.517 108.148 858.763 108.148C860.619 108.148 862.215 107.308 863 105.895L866.608 107.992C865.038 110.588 862.108 112.238 858.76 112.238C853.239 112.238 849.239 108.098 849.239 102.696Z" fill="white"/>
<path d="M867.522 102.696C867.522 97.2971 871.785 93.1545 877.043 93.1545C882.3 93.1545 886.564 97.2971 886.564 102.696C886.564 108.095 882.3 112.238 877.043 112.238C871.785 112.238 867.522 108.098 867.522 102.696ZM882.38 102.696C882.38 99.42 880.026 97.2438 877.043 97.2438C874.06 97.2438 871.706 99.42 871.706 102.696C871.706 105.972 874.06 108.148 877.043 108.148C880.026 108.148 882.38 105.972 882.38 102.696Z" fill="white"/>
<path d="M905.136 102.696C905.136 107.885 901.292 111.871 896.244 111.871H888.921V93.5211H896.244C901.292 93.5211 905.136 97.507 905.136 102.696ZM901.109 102.696C901.109 99.55 899.12 97.557 896.244 97.557H893.105V107.832H896.244C899.12 107.835 901.109 105.842 901.109 102.696Z" fill="white"/>
<path d="M919 107.835V111.871H907.491V93.5211H918.87V97.557H911.677V100.6H918.219V104.586H911.677V107.835H919Z" fill="white"/>
<path d="M831.927 108.555V99.0367C831.927 95.8207 830.121 93.3345 827.244 93.6711V88.0055C830.121 88.3388 831.927 85.8326 831.927 82.6166V73.0984C831.927 64.3867 836.981 65.0099 841.983 65.0099V69.749C839.106 69.4124 837.3 69.8823 837.3 73.1017V82.6199C837.3 86.3059 836.163 89.122 833.756 90.7983C836.163 92.5413 837.3 95.3575 837.3 99.0434V108.562C837.3 111.778 839.106 112.248 841.983 111.914V117.007C837.646 117 831.927 117.267 831.927 108.555Z" fill="white"/>
<path d="M808 117V111.908C810.877 112.245 812.682 111.775 812.682 108.555V99.0372C812.682 95.3513 813.82 92.5351 816.227 90.7921C813.82 89.1158 812.682 86.303 812.682 82.6137V73.0989C812.682 69.8828 810.877 69.4129 808 69.7462V65.0104C813.001 65.0104 818.056 64.3872 818.056 73.0989V82.6171C818.056 85.8331 819.862 88.3393 822.738 88.006V93.6716C819.862 93.3383 818.056 95.8212 818.056 99.0372V108.555C818.056 117.267 812.336 117 808 117Z" fill="white"/>
</g>
<path d="M814.803 46.0234C814.803 46.918 814.51 47.6035 813.924 48.0801C813.338 48.5566 812.504 48.7949 811.422 48.7949H810.531V52H809.131V43.4336H811.598C812.668 43.4336 813.469 43.6523 814 44.0898C814.535 44.5273 814.803 45.1719 814.803 46.0234ZM810.531 47.6172H811.275C811.994 47.6172 812.521 47.4922 812.857 47.2422C813.193 46.9922 813.361 46.6016 813.361 46.0703C813.361 45.5781 813.211 45.2109 812.91 44.9688C812.609 44.7266 812.141 44.6055 811.504 44.6055H810.531V47.6172ZM821.995 48.748C821.995 49.8066 821.724 50.6328 821.181 51.2266C820.638 51.8203 819.882 52.1172 818.913 52.1172C818.308 52.1172 817.773 51.9805 817.308 51.707C816.843 51.4336 816.485 51.041 816.235 50.5293C815.985 50.0176 815.86 49.4238 815.86 48.748C815.86 47.6973 816.13 46.877 816.669 46.2871C817.208 45.6973 817.968 45.4023 818.948 45.4023C819.886 45.4023 820.628 45.7051 821.175 46.3105C821.722 46.9121 821.995 47.7246 821.995 48.748ZM817.278 48.748C817.278 50.2441 817.831 50.9922 818.937 50.9922C820.03 50.9922 820.577 50.2441 820.577 48.748C820.577 47.2676 820.026 46.5273 818.925 46.5273C818.347 46.5273 817.927 46.7188 817.665 47.1016C817.407 47.4844 817.278 48.0332 817.278 48.748ZM828.778 52L827.94 48.9766C827.838 48.6562 827.655 47.9121 827.389 46.7441H827.336C827.11 47.7988 826.93 48.5469 826.797 48.9883L825.936 52H824.412L822.596 45.5195H824.002L824.828 48.7129C825.016 49.502 825.149 50.1777 825.227 50.7402H825.262C825.301 50.4551 825.36 50.1289 825.438 49.7617C825.52 49.3906 825.59 49.1133 825.649 48.9297L826.633 45.5195H828.145L829.1 48.9297C829.158 49.1211 829.231 49.4141 829.317 49.8086C829.406 50.2031 829.459 50.5098 829.475 50.7285H829.522C829.58 50.248 829.717 49.5762 829.932 48.7129L830.77 45.5195H832.153L830.324 52H828.778ZM835.982 52.1172C834.974 52.1172 834.185 51.8242 833.615 51.2383C833.048 50.6484 832.765 49.8379 832.765 48.8066C832.765 47.748 833.029 46.916 833.556 46.3105C834.083 45.7051 834.808 45.4023 835.73 45.4023C836.585 45.4023 837.261 45.6621 837.757 46.1816C838.253 46.7012 838.501 47.416 838.501 48.3262V49.0703H834.183C834.202 49.6992 834.372 50.1836 834.693 50.5234C835.013 50.8594 835.464 51.0273 836.046 51.0273C836.429 51.0273 836.785 50.9922 837.113 50.9219C837.445 50.8477 837.8 50.7266 838.179 50.5586V51.6777C837.843 51.8379 837.503 51.9512 837.16 52.0176C836.816 52.084 836.423 52.1172 835.982 52.1172ZM835.73 46.4453C835.292 46.4453 834.941 46.584 834.675 46.8613C834.413 47.1387 834.257 47.543 834.206 48.0742H837.148C837.14 47.5391 837.011 47.1348 836.761 46.8613C836.511 46.584 836.167 46.4453 835.73 46.4453ZM843.233 45.4023C843.51 45.4023 843.739 45.4219 843.918 45.4609L843.784 46.7441C843.588 46.6973 843.385 46.6738 843.174 46.6738C842.624 46.6738 842.176 46.8535 841.833 47.2129C841.493 47.5723 841.323 48.0391 841.323 48.6133V52H839.946V45.5195H841.024L841.206 46.6621H841.276C841.491 46.2754 841.77 45.9688 842.114 45.7422C842.461 45.5156 842.834 45.4023 843.233 45.4023ZM847.836 52.1172C846.828 52.1172 846.039 51.8242 845.468 51.2383C844.902 50.6484 844.619 49.8379 844.619 48.8066C844.619 47.748 844.882 46.916 845.41 46.3105C845.937 45.7051 846.662 45.4023 847.584 45.4023C848.439 45.4023 849.115 45.6621 849.611 46.1816C850.107 46.7012 850.355 47.416 850.355 48.3262V49.0703H846.037C846.056 49.6992 846.226 50.1836 846.546 50.5234C846.867 50.8594 847.318 51.0273 847.9 51.0273C848.283 51.0273 848.638 50.9922 848.966 50.9219C849.298 50.8477 849.654 50.7266 850.033 50.5586V51.6777C849.697 51.8379 849.357 51.9512 849.013 52.0176C848.67 52.084 848.277 52.1172 847.836 52.1172ZM847.584 46.4453C847.146 46.4453 846.795 46.584 846.529 46.8613C846.267 47.1387 846.111 47.543 846.06 48.0742H849.002C848.994 47.5391 848.865 47.1348 848.615 46.8613C848.365 46.584 848.021 46.4453 847.584 46.4453ZM853.985 52.1172C853.176 52.1172 852.546 51.8242 852.092 51.2383C851.639 50.6523 851.413 49.8301 851.413 48.7715C851.413 47.709 851.641 46.8828 852.098 46.293C852.559 45.6992 853.196 45.4023 854.009 45.4023C854.86 45.4023 855.509 45.7168 855.954 46.3457H856.024C855.958 45.8809 855.925 45.5137 855.925 45.2441V42.8828H857.307V52H856.229L855.989 51.1504H855.925C855.483 51.7949 854.837 52.1172 853.985 52.1172ZM854.354 51.0039C854.921 51.0039 855.333 50.8457 855.591 50.5293C855.848 50.209 855.981 49.6914 855.989 48.9766V48.7832C855.989 47.9668 855.856 47.3867 855.591 47.043C855.325 46.6992 854.909 46.5273 854.342 46.5273C853.858 46.5273 853.485 46.7246 853.223 47.1191C852.962 47.5098 852.831 48.0684 852.831 48.7949C852.831 49.5137 852.958 50.0625 853.212 50.4414C853.466 50.8164 853.846 51.0039 854.354 51.0039ZM862.3 43.4336H864.843C866.022 43.4336 866.874 43.6055 867.397 43.9492C867.925 44.293 868.188 44.8359 868.188 45.5781C868.188 46.0781 868.06 46.4941 867.802 46.8262C867.544 47.1582 867.173 47.3672 866.688 47.4531V47.5117C867.29 47.625 867.731 47.8496 868.013 48.1855C868.298 48.5176 868.44 48.9688 868.44 49.5391C868.44 50.3086 868.171 50.9121 867.632 51.3496C867.097 51.7832 866.351 52 865.394 52H862.3V43.4336ZM863.7 46.9727H865.048C865.634 46.9727 866.061 46.8809 866.331 46.6973C866.601 46.5098 866.735 46.1934 866.735 45.748C866.735 45.3457 866.589 45.0547 866.296 44.875C866.007 44.6953 865.546 44.6055 864.913 44.6055H863.7V46.9727ZM863.7 48.1094V50.8223H865.188C865.774 50.8223 866.216 50.7109 866.513 50.4883C866.813 50.2617 866.964 49.9062 866.964 49.4219C866.964 48.9766 866.811 48.6465 866.507 48.4316C866.202 48.2168 865.739 48.1094 865.118 48.1094H863.7ZM868.971 45.5195H870.471L871.789 49.1934C871.988 49.7168 872.121 50.209 872.188 50.6699H872.234C872.27 50.4551 872.334 50.1953 872.428 49.8906C872.522 49.582 873.018 48.125 873.916 45.5195H875.404L872.633 52.8613C872.129 54.209 871.289 54.8828 870.113 54.8828C869.809 54.8828 869.512 54.8496 869.223 54.7832V53.6934C869.43 53.7402 869.666 53.7637 869.932 53.7637C870.596 53.7637 871.063 53.3789 871.332 52.6094L871.572 52L868.971 45.5195Z" fill="white"/>
<line x1="746.5" y1="17" x2="746.5" y2="143" stroke="white"/>
<path d="M67.9648 97.6C63.0215 97.6 59 101.133 59 105.475C59 107.309 59.7291 109.087 61.0563 110.496C61.3189 111.574 61 112.716 60.209 113.504C59.8786 113.833 60.1123 114.4 60.582 114.4C62.0846 114.4 63.5334 113.814 64.6099 112.781C65.6748 113.159 66.8015 113.35 67.9648 113.35C72.9082 113.35 77 109.817 77 105.475C77 101.133 72.9082 97.6 67.9648 97.6ZM63.8164 107.05C62.9442 107.05 62.2344 106.343 62.2344 105.475C62.2344 104.607 62.9442 103.9 63.8164 103.9C64.6886 103.9 65.3984 104.607 65.3984 105.475C65.3984 106.343 64.6886 107.05 63.8164 107.05ZM68.0352 107.05C67.1629 107.05 66.4531 106.343 66.4531 105.475C66.4531 104.607 67.1629 103.9 68.0352 103.9C68.9074 103.9 69.6172 104.607 69.6172 105.475C69.6172 106.343 68.9074 107.05 68.0352 107.05ZM72.2539 107.05C71.3817 107.05 70.6719 106.343 70.6719 105.475C70.6719 104.607 71.3817 103.9 72.2539 103.9C73.1261 103.9 73.8359 104.607 73.8359 105.475C73.8359 106.343 73.1261 107.05 72.2539 107.05Z" fill="white"/>
<path d="M93.0938 107.898C93.0938 108.914 92.7266 109.711 91.9922 110.289C91.2578 110.867 90.2448 111.156 88.9531 111.156C87.6615 111.156 86.6042 110.956 85.7812 110.555V108.789C86.3021 109.034 86.8542 109.227 87.4375 109.367C88.026 109.508 88.5729 109.578 89.0781 109.578C89.8177 109.578 90.362 109.438 90.7109 109.156C91.0651 108.875 91.2422 108.497 91.2422 108.023C91.2422 107.596 91.0807 107.234 90.7578 106.938C90.4349 106.641 89.7682 106.289 88.7578 105.883C87.7161 105.461 86.9818 104.979 86.5547 104.438C86.1276 103.896 85.9141 103.245 85.9141 102.484C85.9141 101.531 86.2526 100.781 86.9297 100.234C87.6068 99.6875 88.5156 99.4141 89.6562 99.4141C90.75 99.4141 91.8385 99.6536 92.9219 100.133L92.3281 101.656C91.3125 101.229 90.4062 101.016 89.6094 101.016C89.0052 101.016 88.5469 101.148 88.2344 101.414C87.9219 101.674 87.7656 102.021 87.7656 102.453C87.7656 102.75 87.8281 103.005 87.9531 103.219C88.0781 103.427 88.2839 103.625 88.5703 103.812C88.8568 104 89.3724 104.247 90.1172 104.555C90.9557 104.904 91.5703 105.229 91.9609 105.531C92.3516 105.833 92.638 106.174 92.8203 106.555C93.0026 106.935 93.0938 107.383 93.0938 107.898ZM101.043 111L100.785 109.867H100.692C100.436 110.268 100.072 110.583 99.5978 110.812C99.1291 111.042 98.5926 111.156 97.9884 111.156C96.9416 111.156 96.1603 110.896 95.6447 110.375C95.1291 109.854 94.8713 109.065 94.8713 108.008V102.359H96.7228V107.688C96.7228 108.349 96.8582 108.846 97.1291 109.18C97.3999 109.508 97.8244 109.672 98.4025 109.672C99.1733 109.672 99.7384 109.443 100.098 108.984C100.462 108.521 100.645 107.747 100.645 106.664V102.359H102.488V111H101.043ZM109.328 111.156C108.235 111.156 107.386 110.763 106.782 109.977H106.672C106.745 110.706 106.782 111.148 106.782 111.305V114.844H104.946V102.359H106.43C106.472 102.521 106.558 102.906 106.688 103.516H106.782C107.354 102.641 108.214 102.203 109.36 102.203C110.438 102.203 111.276 102.594 111.875 103.375C112.479 104.156 112.782 105.253 112.782 106.664C112.782 108.076 112.474 109.177 111.86 109.969C111.25 110.76 110.407 111.156 109.328 111.156ZM108.883 103.703C108.154 103.703 107.62 103.917 107.282 104.344C106.948 104.771 106.782 105.453 106.782 106.391V106.664C106.782 107.716 106.948 108.479 107.282 108.953C107.615 109.422 108.159 109.656 108.914 109.656C109.55 109.656 110.039 109.396 110.383 108.875C110.727 108.354 110.899 107.612 110.899 106.648C110.899 105.68 110.727 104.948 110.383 104.453C110.045 103.953 109.545 103.703 108.883 103.703ZM119.137 111.156C118.043 111.156 117.194 110.763 116.59 109.977H116.481C116.554 110.706 116.59 111.148 116.59 111.305V114.844H114.754V102.359H116.239C116.28 102.521 116.366 102.906 116.497 103.516H116.59C117.163 102.641 118.023 102.203 119.168 102.203C120.247 102.203 121.085 102.594 121.684 103.375C122.288 104.156 122.59 105.253 122.59 106.664C122.59 108.076 122.283 109.177 121.668 109.969C121.059 110.76 120.215 111.156 119.137 111.156ZM118.692 103.703C117.963 103.703 117.429 103.917 117.09 104.344C116.757 104.771 116.59 105.453 116.59 106.391V106.664C116.59 107.716 116.757 108.479 117.09 108.953C117.424 109.422 117.968 109.656 118.723 109.656C119.359 109.656 119.848 109.396 120.192 108.875C120.536 108.354 120.708 107.612 120.708 106.648C120.708 105.68 120.536 104.948 120.192 104.453C119.853 103.953 119.353 103.703 118.692 103.703ZM132.227 106.664C132.227 108.076 131.865 109.177 131.141 109.969C130.417 110.76 129.409 111.156 128.118 111.156C127.311 111.156 126.597 110.974 125.977 110.609C125.357 110.245 124.881 109.721 124.548 109.039C124.214 108.357 124.048 107.565 124.048 106.664C124.048 105.263 124.407 104.169 125.126 103.383C125.844 102.596 126.857 102.203 128.165 102.203C129.415 102.203 130.404 102.607 131.133 103.414C131.863 104.216 132.227 105.299 132.227 106.664ZM125.938 106.664C125.938 108.659 126.675 109.656 128.149 109.656C129.607 109.656 130.337 108.659 130.337 106.664C130.337 104.69 129.602 103.703 128.133 103.703C127.363 103.703 126.803 103.958 126.454 104.469C126.11 104.979 125.938 105.711 125.938 106.664ZM138.567 102.203C138.937 102.203 139.242 102.229 139.481 102.281L139.302 103.992C139.041 103.93 138.77 103.898 138.489 103.898C137.755 103.898 137.158 104.138 136.7 104.617C136.247 105.096 136.02 105.719 136.02 106.484V111H134.184V102.359H135.622L135.864 103.883H135.958C136.244 103.367 136.617 102.958 137.075 102.656C137.539 102.354 138.036 102.203 138.567 102.203ZM144.149 109.672C144.597 109.672 145.045 109.602 145.493 109.461V110.844C145.29 110.932 145.027 111.005 144.704 111.062C144.386 111.125 144.056 111.156 143.712 111.156C141.972 111.156 141.103 110.24 141.103 108.406V103.75H139.923V102.938L141.188 102.266L141.813 100.438H142.946V102.359H145.407V103.75H142.946V108.375C142.946 108.818 143.056 109.146 143.274 109.359C143.498 109.568 143.79 109.672 144.149 109.672Z" fill="white"/>
<path d="M185.344 99.4821C184.906 99.0654 184.375 98.857 183.75 98.857C183.125 98.857 182.594 99.0654 182.156 99.4821C181.719 99.8988 181.5 100.405 181.5 101C181.5 101.387 181.602 101.746 181.805 102.077C182.008 102.408 182.281 102.667 182.625 102.853C182.625 103.24 182.592 103.58 182.526 103.874C182.459 104.168 182.35 104.426 182.198 104.65C182.045 104.873 181.887 105.062 181.723 105.219C181.558 105.375 181.328 105.522 181.031 105.66C180.734 105.797 180.458 105.913 180.205 106.006C179.951 106.099 179.609 106.208 179.18 106.335C178.398 106.565 177.797 106.777 177.375 106.971V101.424C177.719 101.238 177.992 100.979 178.195 100.648C178.398 100.317 178.5 99.9582 178.5 99.5712C178.5 98.9762 178.281 98.47 177.843 98.0533C177.406 97.6369 176.875 97.4286 176.25 97.4286C175.625 97.4286 175.094 97.6369 174.656 98.0537C174.219 98.4704 174 98.9762 174 99.5712C174 99.9582 174.101 100.317 174.305 100.648C174.508 100.979 174.781 101.238 175.125 101.424V110.576C174.781 110.762 174.508 111.021 174.305 111.351C174.101 111.683 174 112.042 174 112.429C174 113.024 174.219 113.53 174.656 113.946C175.094 114.363 175.625 114.571 176.25 114.571C176.875 114.571 177.406 114.363 177.844 113.946C178.281 113.53 178.5 113.024 178.5 112.429C178.5 112.042 178.399 111.683 178.196 111.352C177.992 111.021 177.719 110.762 177.375 110.576V110.286C177.375 109.773 177.537 109.401 177.862 109.171C178.186 108.94 178.848 108.676 179.848 108.378C180.903 108.058 181.696 107.757 182.227 107.474C183.977 106.529 184.86 104.989 184.875 102.853C185.219 102.667 185.493 102.409 185.695 102.078C185.899 101.747 186 101.388 186 101.001C186 100.405 185.781 99.8988 185.344 99.4821ZM177.047 113.188C176.828 113.396 176.563 113.5 176.251 113.5C175.938 113.5 175.672 113.396 175.453 113.188C175.235 112.98 175.125 112.727 175.125 112.429C175.125 112.131 175.235 111.879 175.453 111.67C175.672 111.462 175.938 111.358 176.251 111.358C176.563 111.358 176.828 111.462 177.047 111.67C177.266 111.878 177.375 112.131 177.375 112.429C177.375 112.727 177.266 112.98 177.047 113.188ZM177.047 100.33C176.828 100.539 176.563 100.643 176.251 100.643C175.938 100.643 175.672 100.539 175.453 100.33C175.235 100.122 175.125 99.8691 175.125 99.5716C175.125 99.2741 175.235 99.0208 175.453 98.8128C175.672 98.6045 175.938 98.5005 176.251 98.5005C176.563 98.5005 176.828 98.6049 177.047 98.8128C177.266 99.0212 177.375 99.2741 177.375 99.5716C177.375 99.8691 177.266 100.122 177.047 100.33ZM184.547 101.759C184.328 101.968 184.063 102.072 183.75 102.072C183.438 102.072 183.172 101.967 182.954 101.759C182.735 101.551 182.626 101.298 182.626 101C182.626 100.703 182.735 100.45 182.954 100.242C183.172 100.033 183.438 99.9293 183.75 99.9293C184.063 99.9293 184.328 100.033 184.547 100.242C184.766 100.45 184.875 100.703 184.875 101C184.875 101.298 184.766 101.551 184.547 101.759Z" fill="white"/>
<path d="M203.724 103.031C203.724 104.224 203.333 105.138 202.552 105.773C201.771 106.409 200.659 106.727 199.216 106.727H198.028V111H196.161V99.5781H199.45C200.877 99.5781 201.945 99.8698 202.653 100.453C203.367 101.036 203.724 101.896 203.724 103.031ZM198.028 105.156H199.021C199.979 105.156 200.682 104.99 201.13 104.656C201.578 104.323 201.802 103.802 201.802 103.094C201.802 102.438 201.601 101.948 201.2 101.625C200.799 101.302 200.174 101.141 199.325 101.141H198.028V105.156ZM210.033 102.203C210.402 102.203 210.707 102.229 210.947 102.281L210.767 103.992C210.506 103.93 210.236 103.898 209.954 103.898C209.22 103.898 208.624 104.138 208.165 104.617C207.712 105.096 207.486 105.719 207.486 106.484V111H205.65V102.359H207.087L207.329 103.883H207.423C207.71 103.367 208.082 102.958 208.54 102.656C209.004 102.354 209.501 102.203 210.033 102.203ZM216.169 111.156C214.826 111.156 213.774 110.766 213.013 109.984C212.258 109.198 211.88 108.117 211.88 106.742C211.88 105.331 212.232 104.221 212.935 103.414C213.638 102.607 214.604 102.203 215.833 102.203C216.974 102.203 217.875 102.549 218.537 103.242C219.198 103.935 219.529 104.888 219.529 106.102V107.094H213.771C213.797 107.932 214.024 108.578 214.451 109.031C214.878 109.479 215.479 109.703 216.255 109.703C216.766 109.703 217.24 109.656 217.677 109.562C218.12 109.464 218.594 109.302 219.099 109.078V110.57C218.651 110.784 218.198 110.935 217.74 111.023C217.281 111.112 216.758 111.156 216.169 111.156ZM215.833 103.594C215.25 103.594 214.781 103.779 214.427 104.148C214.078 104.518 213.87 105.057 213.802 105.766H217.724C217.714 105.052 217.542 104.513 217.208 104.148C216.875 103.779 216.417 103.594 215.833 103.594ZM228.736 111H226.892V105.672C226.892 105.01 226.767 104.518 226.517 104.195C226.267 103.867 225.877 103.703 225.345 103.703C224.637 103.703 224.116 103.935 223.783 104.398C223.455 104.857 223.291 105.622 223.291 106.695V111H221.455V102.359H222.892L223.15 103.492H223.244C223.483 103.081 223.83 102.763 224.283 102.539C224.741 102.315 225.244 102.203 225.791 102.203C227.119 102.203 227.999 102.656 228.431 103.562H228.556C228.811 103.135 229.171 102.802 229.634 102.562C230.098 102.323 230.629 102.203 231.228 102.203C232.259 102.203 233.009 102.464 233.478 102.984C233.952 103.505 234.189 104.299 234.189 105.367V111H232.353V105.672C232.353 105.01 232.226 104.518 231.97 104.195C231.72 103.867 231.33 103.703 230.798 103.703C230.085 103.703 229.561 103.927 229.228 104.375C228.9 104.818 228.736 105.5 228.736 106.422V111ZM238.428 111H236.592V102.359H238.428V111ZM236.482 100.07C236.482 99.7422 236.571 99.4896 236.748 99.3125C236.93 99.1354 237.188 99.0469 237.521 99.0469C237.844 99.0469 238.094 99.1354 238.271 99.3125C238.454 99.4896 238.545 99.7422 238.545 100.07C238.545 100.383 238.454 100.63 238.271 100.812C238.094 100.99 237.844 101.078 237.521 101.078C237.188 101.078 236.93 100.99 236.748 100.812C236.571 100.63 236.482 100.383 236.482 100.07ZM246.994 111L246.736 109.867H246.643C246.387 110.268 246.023 110.583 245.549 110.812C245.08 111.042 244.544 111.156 243.939 111.156C242.893 111.156 242.111 110.896 241.596 110.375C241.08 109.854 240.822 109.065 240.822 108.008V102.359H242.674V107.688C242.674 108.349 242.809 108.846 243.08 109.18C243.351 109.508 243.775 109.672 244.353 109.672C245.124 109.672 245.689 109.443 246.049 108.984C246.413 108.521 246.596 107.747 246.596 106.664V102.359H248.439V111H246.994ZM258.178 111H256.334V105.672C256.334 105.01 256.209 104.518 255.959 104.195C255.709 103.867 255.318 103.703 254.787 103.703C254.079 103.703 253.558 103.935 253.225 104.398C252.897 104.857 252.733 105.622 252.733 106.695V111H250.897V102.359H252.334L252.592 103.492H252.686C252.925 103.081 253.272 102.763 253.725 102.539C254.183 102.315 254.686 102.203 255.233 102.203C256.561 102.203 257.441 102.656 257.873 103.562H257.998C258.253 103.135 258.613 102.802 259.076 102.562C259.54 102.323 260.071 102.203 260.67 102.203C261.701 102.203 262.451 102.464 262.92 102.984C263.394 103.505 263.631 104.299 263.631 105.367V111H261.795V105.672C261.795 105.01 261.667 104.518 261.412 104.195C261.162 103.867 260.772 103.703 260.24 103.703C259.527 103.703 259.003 103.927 258.67 104.375C258.342 104.818 258.178 105.5 258.178 106.422V111ZM275.084 101.016C274.011 101.016 273.168 101.396 272.553 102.156C271.939 102.917 271.631 103.966 271.631 105.305C271.631 106.706 271.926 107.766 272.514 108.484C273.108 109.203 273.965 109.562 275.084 109.562C275.569 109.562 276.038 109.516 276.491 109.422C276.944 109.323 277.415 109.198 277.905 109.047V110.648C277.009 110.987 275.993 111.156 274.858 111.156C273.186 111.156 271.902 110.651 271.006 109.641C270.11 108.625 269.663 107.174 269.663 105.289C269.663 104.102 269.879 103.062 270.311 102.172C270.748 101.281 271.379 100.599 272.202 100.125C273.024 99.651 273.991 99.4141 275.1 99.4141C276.267 99.4141 277.345 99.6589 278.334 100.148L277.663 101.703C277.277 101.521 276.868 101.362 276.436 101.227C276.009 101.086 275.558 101.016 275.084 101.016ZM287.674 106.664C287.674 108.076 287.312 109.177 286.588 109.969C285.864 110.76 284.857 111.156 283.565 111.156C282.758 111.156 282.044 110.974 281.424 110.609C280.805 110.245 280.328 109.721 279.995 109.039C279.661 108.357 279.495 107.565 279.495 106.664C279.495 105.263 279.854 104.169 280.573 103.383C281.292 102.596 282.305 102.203 283.612 102.203C284.862 102.203 285.851 102.607 286.581 103.414C287.31 104.216 287.674 105.299 287.674 106.664ZM281.385 106.664C281.385 108.659 282.122 109.656 283.596 109.656C285.055 109.656 285.784 108.659 285.784 106.664C285.784 104.69 285.049 103.703 283.581 103.703C282.81 103.703 282.25 103.958 281.901 104.469C281.557 104.979 281.385 105.711 281.385 106.664ZM292.546 111.156C291.467 111.156 290.626 110.766 290.022 109.984C289.418 109.203 289.116 108.107 289.116 106.695C289.116 105.279 289.421 104.177 290.03 103.391C290.645 102.599 291.494 102.203 292.577 102.203C293.712 102.203 294.577 102.622 295.171 103.461H295.264C295.176 102.841 295.132 102.352 295.132 101.992V98.8438H296.975V111H295.538L295.217 109.867H295.132C294.543 110.727 293.681 111.156 292.546 111.156ZM293.038 109.672C293.793 109.672 294.342 109.461 294.686 109.039C295.03 108.612 295.207 107.922 295.217 106.969V106.711C295.217 105.622 295.04 104.849 294.686 104.391C294.332 103.932 293.777 103.703 293.022 103.703C292.376 103.703 291.879 103.966 291.53 104.492C291.181 105.013 291.007 105.758 291.007 106.727C291.007 107.685 291.176 108.417 291.514 108.922C291.853 109.422 292.361 109.672 293.038 109.672ZM303.214 111.156C301.87 111.156 300.818 110.766 300.057 109.984C299.302 109.198 298.925 108.117 298.925 106.742C298.925 105.331 299.276 104.221 299.979 103.414C300.682 102.607 301.649 102.203 302.878 102.203C304.018 102.203 304.919 102.549 305.581 103.242C306.242 103.935 306.573 104.888 306.573 106.102V107.094H300.815C300.841 107.932 301.068 108.578 301.495 109.031C301.922 109.479 302.524 109.703 303.3 109.703C303.81 109.703 304.284 109.656 304.722 109.562C305.164 109.464 305.638 109.302 306.143 109.078V110.57C305.696 110.784 305.242 110.935 304.784 111.023C304.326 111.112 303.802 111.156 303.214 111.156ZM302.878 103.594C302.294 103.594 301.826 103.779 301.472 104.148C301.123 104.518 300.914 105.057 300.847 105.766H304.768C304.758 105.052 304.586 104.513 304.253 104.148C303.919 103.779 303.461 103.594 302.878 103.594Z" fill="white"/>
<path d="M351.766 105.562L350.112 104.458L350.07 104.263L350.945 102.496C351.021 102.338 351.017 102.152 350.927 101.999C350.839 101.848 350.681 101.749 350.507 101.738L348.532 101.611L348.389 101.466L348.26 99.4931C348.252 99.3181 348.152 99.1591 348 99.0712C347.848 98.9844 347.661 98.9781 347.504 99.0562L345.734 99.9312L345.535 99.8784L344.438 98.2341C344.342 98.0894 344.181 98.0028 344.008 98H343.992C343.82 98.0028 343.659 98.0894 343.563 98.2341L342.465 99.88L342.268 99.9309L340.496 99.0559C340.34 98.9781 340.153 98.9841 340 99.0709C339.848 99.1591 339.75 99.3178 339.739 99.4931L339.612 101.468L339.469 101.611L337.495 101.738C337.319 101.749 337.161 101.848 337.072 101.999C336.984 102.152 336.978 102.339 337.057 102.497L337.932 104.268L337.88 104.465L336.234 105.562C336.087 105.659 336 105.824 336 106C336 106.176 336.088 106.341 336.235 106.438L337.88 107.536L337.931 107.733L337.056 109.503C336.978 109.661 336.984 109.848 337.072 109.999C337.16 110.152 337.318 110.251 337.494 110.262L339.468 110.39L339.611 110.534L339.74 112.507C339.749 112.683 339.847 112.842 340.001 112.93C340.154 113.018 340.339 113.024 340.497 112.946L342.267 112.071L342.466 112.123L343.562 113.768C343.661 113.912 343.827 114 344.002 114C344.178 114 344.342 113.912 344.44 113.766L345.537 112.121L345.737 112.069L347.507 112.943C347.662 113.021 347.851 113.015 348.002 112.927C348.154 112.839 348.252 112.68 348.265 112.504L348.392 110.533L348.539 110.387L350.509 110.26C350.685 110.249 350.842 110.151 350.931 109.998C351.019 109.845 351.025 109.66 350.947 109.502L350.072 107.732L350.115 107.538L351.766 106.437C351.913 106.339 352 106.175 352 105.999C352 105.823 351.913 105.659 351.766 105.562ZM347.85 104.634L344.301 108.322L343.192 109.43C342.989 109.635 342.655 109.635 342.452 109.43L341.342 108.322L339.7 106.679C339.496 106.476 339.496 106.144 339.7 105.941L340.439 105.2C340.642 104.996 340.976 104.996 341.179 105.2L342.82 106.841L346.368 103.154C346.571 102.949 346.903 102.948 347.106 103.152L347.846 103.892C348.051 104.095 348.051 104.429 347.85 104.634Z" fill="white"/>
<path d="M367.265 111V99.5781H369.132V109.398H373.968V111H367.265ZM377.417 111H375.582V102.359H377.417V111ZM375.472 100.07C375.472 99.7422 375.561 99.4896 375.738 99.3125C375.92 99.1354 376.178 99.0469 376.511 99.0469C376.834 99.0469 377.084 99.1354 377.261 99.3125C377.444 99.4896 377.535 99.7422 377.535 100.07C377.535 100.383 377.444 100.63 377.261 100.812C377.084 100.99 376.834 101.078 376.511 101.078C376.178 101.078 375.92 100.99 375.738 100.812C375.561 100.63 375.472 100.383 375.472 100.07ZM383.375 111.156C382.067 111.156 381.073 110.776 380.39 110.016C379.713 109.25 379.375 108.154 379.375 106.727C379.375 105.273 379.729 104.156 380.437 103.375C381.151 102.594 382.179 102.203 383.523 102.203C384.435 102.203 385.255 102.372 385.984 102.711L385.429 104.188C384.653 103.885 384.013 103.734 383.507 103.734C382.013 103.734 381.265 104.727 381.265 106.711C381.265 107.68 381.45 108.409 381.82 108.898C382.195 109.383 382.742 109.625 383.461 109.625C384.278 109.625 385.052 109.422 385.781 109.016V110.617C385.453 110.81 385.101 110.948 384.726 111.031C384.356 111.115 383.906 111.156 383.375 111.156ZM391.426 111.156C390.082 111.156 389.03 110.766 388.269 109.984C387.514 109.198 387.137 108.117 387.137 106.742C387.137 105.331 387.488 104.221 388.191 103.414C388.894 102.607 389.861 102.203 391.09 102.203C392.23 102.203 393.131 102.549 393.793 103.242C394.454 103.935 394.785 104.888 394.785 106.102V107.094H389.027C389.053 107.932 389.28 108.578 389.707 109.031C390.134 109.479 390.736 109.703 391.512 109.703C392.022 109.703 392.496 109.656 392.933 109.562C393.376 109.464 393.85 109.302 394.355 109.078V110.57C393.907 110.784 393.454 110.935 392.996 111.023C392.538 111.112 392.014 111.156 391.426 111.156ZM391.09 103.594C390.506 103.594 390.038 103.779 389.683 104.148C389.334 104.518 389.126 105.057 389.058 105.766H392.98C392.97 105.052 392.798 104.513 392.465 104.148C392.131 103.779 391.673 103.594 391.09 103.594ZM404.312 111H402.469V105.688C402.469 105.021 402.333 104.523 402.062 104.195C401.797 103.867 401.372 103.703 400.789 103.703C400.013 103.703 399.445 103.932 399.086 104.391C398.727 104.849 398.547 105.617 398.547 106.695V111H396.711V102.359H398.148L398.406 103.492H398.5C398.76 103.081 399.13 102.763 399.609 102.539C400.089 102.315 400.62 102.203 401.203 102.203C403.276 102.203 404.312 103.258 404.312 105.367V111ZM412.512 108.539C412.512 109.383 412.205 110.031 411.59 110.484C410.975 110.932 410.095 111.156 408.949 111.156C407.798 111.156 406.874 110.982 406.176 110.633V109.047C407.192 109.516 408.137 109.75 409.012 109.75C410.142 109.75 410.707 109.409 410.707 108.727C410.707 108.508 410.645 108.326 410.52 108.18C410.395 108.034 410.189 107.883 409.903 107.727C409.616 107.57 409.218 107.393 408.707 107.195C407.712 106.81 407.038 106.424 406.684 106.039C406.335 105.654 406.16 105.154 406.16 104.539C406.16 103.799 406.457 103.227 407.051 102.82C407.65 102.409 408.462 102.203 409.488 102.203C410.504 102.203 411.465 102.409 412.371 102.82L411.778 104.203C410.845 103.818 410.061 103.625 409.426 103.625C408.457 103.625 407.973 103.901 407.973 104.453C407.973 104.724 408.098 104.953 408.348 105.141C408.603 105.328 409.155 105.586 410.004 105.914C410.718 106.19 411.236 106.443 411.559 106.672C411.882 106.901 412.121 107.167 412.278 107.469C412.434 107.766 412.512 108.122 412.512 108.539ZM416.18 111H414.344V102.359H416.18V111ZM414.235 100.07C414.235 99.7422 414.323 99.4896 414.5 99.3125C414.683 99.1354 414.94 99.0469 415.274 99.0469C415.597 99.0469 415.847 99.1354 416.024 99.3125C416.206 99.4896 416.297 99.7422 416.297 100.07C416.297 100.383 416.206 100.63 416.024 100.812C415.847 100.99 415.597 101.078 415.274 101.078C414.94 101.078 414.683 100.99 414.5 100.812C414.323 100.63 414.235 100.383 414.235 100.07ZM426.254 111H424.411V105.688C424.411 105.021 424.275 104.523 424.004 104.195C423.739 103.867 423.314 103.703 422.731 103.703C421.955 103.703 421.387 103.932 421.028 104.391C420.668 104.849 420.489 105.617 420.489 106.695V111H418.653V102.359H420.09L420.348 103.492H420.442C420.702 103.081 421.072 102.763 421.551 102.539C422.03 102.315 422.562 102.203 423.145 102.203C425.218 102.203 426.254 103.258 426.254 105.367V111ZM435.946 102.359V103.367L434.469 103.641C434.605 103.823 434.717 104.047 434.805 104.312C434.894 104.578 434.938 104.859 434.938 105.156C434.938 106.047 434.631 106.747 434.016 107.258C433.402 107.768 432.555 108.023 431.477 108.023C431.201 108.023 430.951 108.003 430.727 107.961C430.331 108.206 430.133 108.492 430.133 108.82C430.133 109.018 430.225 109.167 430.407 109.266C430.594 109.365 430.936 109.414 431.43 109.414H432.938C433.891 109.414 434.615 109.617 435.11 110.023C435.605 110.43 435.852 111.016 435.852 111.781C435.852 112.76 435.449 113.516 434.641 114.047C433.834 114.578 432.667 114.844 431.141 114.844C429.964 114.844 429.066 114.635 428.446 114.219C427.826 113.802 427.516 113.208 427.516 112.438C427.516 111.906 427.683 111.458 428.016 111.094C428.355 110.734 428.826 110.484 429.43 110.344C429.186 110.24 428.982 110.073 428.821 109.844C428.665 109.609 428.587 109.365 428.587 109.109C428.587 108.786 428.678 108.513 428.86 108.289C429.042 108.065 429.313 107.844 429.673 107.625C429.225 107.432 428.86 107.12 428.579 106.688C428.303 106.25 428.165 105.74 428.165 105.156C428.165 104.219 428.459 103.492 429.048 102.977C429.641 102.461 430.485 102.203 431.579 102.203C431.824 102.203 432.079 102.221 432.344 102.258C432.615 102.289 432.818 102.323 432.954 102.359H435.946ZM429.157 112.344C429.157 112.74 429.334 113.044 429.688 113.258C430.048 113.471 430.55 113.578 431.196 113.578C432.196 113.578 432.941 113.435 433.43 113.148C433.92 112.862 434.165 112.482 434.165 112.008C434.165 111.633 434.029 111.365 433.758 111.203C433.493 111.047 432.995 110.969 432.266 110.969H430.876C430.35 110.969 429.93 111.091 429.618 111.336C429.311 111.586 429.157 111.922 429.157 112.344ZM429.946 105.156C429.946 105.698 430.084 106.115 430.36 106.406C430.641 106.698 431.042 106.844 431.563 106.844C432.626 106.844 433.157 106.276 433.157 105.141C433.157 104.578 433.024 104.146 432.758 103.844C432.498 103.536 432.1 103.383 431.563 103.383C431.032 103.383 430.628 103.534 430.352 103.836C430.081 104.138 429.946 104.578 429.946 105.156Z" fill="white"/>
<circle cx="602" cy="104" r="6" fill="#00D100"/>
<path d="M621.571 100.264C620.632 100.264 619.894 100.596 619.356 101.262C618.819 101.927 618.55 102.845 618.55 104.017C618.55 105.243 618.807 106.17 619.322 106.799C619.842 107.428 620.591 107.742 621.571 107.742C621.995 107.742 622.405 107.701 622.802 107.619C623.198 107.533 623.611 107.423 624.039 107.291V108.692C623.255 108.989 622.367 109.137 621.373 109.137C619.91 109.137 618.787 108.695 618.003 107.811C617.219 106.922 616.827 105.653 616.827 104.003C616.827 102.964 617.016 102.055 617.395 101.275C617.777 100.496 618.329 99.8991 619.049 99.4844C619.769 99.0697 620.614 98.8623 621.585 98.8623C622.606 98.8623 623.549 99.0765 624.415 99.5049L623.827 100.865C623.49 100.706 623.132 100.567 622.754 100.448C622.38 100.325 621.986 100.264 621.571 100.264ZM632.533 109H630.92V104.352C630.92 103.768 630.801 103.333 630.564 103.046C630.332 102.759 629.96 102.615 629.45 102.615C628.775 102.615 628.279 102.818 627.96 103.224C627.645 103.625 627.488 104.299 627.488 105.247V109H625.881V98.3633H627.488V101.063C627.488 101.496 627.461 101.959 627.406 102.451H627.508C627.727 102.087 628.03 101.804 628.418 101.604C628.81 101.403 629.265 101.303 629.785 101.303C631.617 101.303 632.533 102.226 632.533 104.071V109ZM639.359 109L639.037 107.947H638.983C638.618 108.408 638.251 108.722 637.882 108.891C637.513 109.055 637.039 109.137 636.46 109.137C635.717 109.137 635.136 108.936 634.717 108.535C634.302 108.134 634.095 107.567 634.095 106.833C634.095 106.054 634.384 105.466 634.963 105.069C635.542 104.673 636.424 104.456 637.609 104.42L638.914 104.379V103.976C638.914 103.493 638.8 103.132 638.573 102.896C638.349 102.654 638.001 102.533 637.527 102.533C637.139 102.533 636.768 102.59 636.412 102.704C636.057 102.818 635.715 102.952 635.387 103.107L634.867 101.959C635.278 101.745 635.727 101.583 636.214 101.474C636.702 101.36 637.162 101.303 637.595 101.303C638.557 101.303 639.281 101.512 639.769 101.932C640.261 102.351 640.507 103.009 640.507 103.907V109H639.359ZM636.966 107.906C637.549 107.906 638.017 107.744 638.367 107.421C638.723 107.093 638.901 106.635 638.901 106.047V105.391L637.93 105.432C637.173 105.459 636.622 105.587 636.276 105.814C635.934 106.038 635.763 106.382 635.763 106.847C635.763 107.184 635.863 107.446 636.064 107.633C636.264 107.815 636.565 107.906 636.966 107.906ZM645.426 107.838C645.818 107.838 646.21 107.776 646.601 107.653V108.863C646.424 108.941 646.194 109.005 645.911 109.055C645.633 109.109 645.344 109.137 645.043 109.137C643.521 109.137 642.76 108.335 642.76 106.73V102.656H641.727V101.945L642.835 101.357L643.382 99.7578H644.373V101.439H646.526V102.656H644.373V106.703C644.373 107.09 644.469 107.378 644.66 107.564C644.856 107.747 645.111 107.838 645.426 107.838Z" fill="white"/>
<rect x="581.5" y="44.5" width="102" height="31" rx="7.5" fill="white"/>
<path d="M617.813 58.0273C617.813 59.071 617.471 59.8708 616.787 60.4268C616.104 60.9827 615.131 61.2607 613.868 61.2607H612.829V65H611.195V55.0059H614.073C615.322 55.0059 616.256 55.2611 616.876 55.7715C617.5 56.2819 617.813 57.0339 617.813 58.0273ZM612.829 59.8867H613.697C614.536 59.8867 615.151 59.7409 615.543 59.4492C615.935 59.1576 616.131 58.7018 616.131 58.082C616.131 57.5078 615.955 57.0794 615.605 56.7969C615.254 56.5143 614.707 56.373 613.964 56.373H612.829V59.8867ZM623.333 57.3027C623.656 57.3027 623.923 57.3255 624.133 57.3711L623.975 58.8682C623.747 58.8135 623.51 58.7861 623.264 58.7861C622.622 58.7861 622.1 58.9958 621.699 59.415C621.302 59.8343 621.104 60.3789 621.104 61.0488V65H619.498V57.4395H620.756L620.967 58.7725H621.05C621.3 58.3213 621.626 57.9635 622.027 57.6992C622.433 57.4349 622.868 57.3027 623.333 57.3027ZM627.007 65H625.401V57.4395H627.007V65ZM625.305 55.4365C625.305 55.1494 625.383 54.9284 625.537 54.7734C625.697 54.6185 625.923 54.541 626.214 54.541C626.497 54.541 626.716 54.6185 626.87 54.7734C627.03 54.9284 627.11 55.1494 627.11 55.4365C627.11 55.71 627.03 55.9264 626.87 56.0859C626.716 56.2409 626.497 56.3184 626.214 56.3184C625.923 56.3184 625.697 56.2409 625.537 56.0859C625.383 55.9264 625.305 55.71 625.305 55.4365ZM632.22 65.1367C631.076 65.1367 630.205 64.804 629.608 64.1387C629.016 63.4688 628.72 62.5094 628.72 61.2607C628.72 59.9893 629.03 59.0117 629.649 58.3281C630.274 57.6445 631.174 57.3027 632.35 57.3027C633.147 57.3027 633.865 57.4508 634.503 57.7471L634.018 59.0391C633.339 58.7747 632.778 58.6426 632.336 58.6426C631.028 58.6426 630.374 59.5107 630.374 61.2471C630.374 62.0947 630.536 62.7327 630.859 63.1611C631.188 63.585 631.666 63.7969 632.295 63.7969C633.01 63.7969 633.687 63.6191 634.325 63.2637V64.665C634.038 64.8337 633.73 64.9544 633.402 65.0273C633.079 65.1003 632.685 65.1367 632.22 65.1367ZM637.569 65H635.963V57.4395H637.569V65ZM635.867 55.4365C635.867 55.1494 635.944 54.9284 636.099 54.7734C636.259 54.6185 636.484 54.541 636.776 54.541C637.059 54.541 637.277 54.6185 637.432 54.7734C637.592 54.9284 637.672 55.1494 637.672 55.4365C637.672 55.71 637.592 55.9264 637.432 56.0859C637.277 56.2409 637.059 56.3184 636.776 56.3184C636.484 56.3184 636.259 56.2409 636.099 56.0859C635.944 55.9264 635.867 55.71 635.867 55.4365ZM646.384 65H644.771V60.3516C644.771 59.7682 644.652 59.333 644.415 59.0459C644.183 58.7588 643.811 58.6152 643.301 58.6152C642.622 58.6152 642.125 58.8158 641.811 59.2168C641.496 59.6178 641.339 60.29 641.339 61.2334V65H639.733V57.4395H640.991L641.216 58.4307H641.298C641.526 58.0706 641.85 57.7926 642.269 57.5967C642.688 57.4007 643.153 57.3027 643.663 57.3027C645.477 57.3027 646.384 58.2256 646.384 60.0713V65ZM654.864 57.4395V58.3213L653.572 58.5605C653.691 58.7201 653.789 58.916 653.866 59.1484C653.944 59.3809 653.982 59.627 653.982 59.8867C653.982 60.666 653.713 61.279 653.176 61.7256C652.638 62.1722 651.897 62.3955 650.954 62.3955C650.712 62.3955 650.494 62.3773 650.298 62.3408C649.951 62.555 649.778 62.8057 649.778 63.0928C649.778 63.266 649.858 63.3958 650.018 63.4824C650.182 63.569 650.48 63.6123 650.913 63.6123H652.232C653.066 63.6123 653.7 63.79 654.133 64.1455C654.566 64.501 654.782 65.0137 654.782 65.6836C654.782 66.5404 654.429 67.2012 653.723 67.666C653.016 68.1309 651.995 68.3633 650.66 68.3633C649.63 68.3633 648.844 68.181 648.302 67.8164C647.759 67.4518 647.488 66.9323 647.488 66.2578C647.488 65.793 647.634 65.401 647.926 65.082C648.222 64.7676 648.634 64.5488 649.163 64.4258C648.949 64.3346 648.771 64.1888 648.63 63.9883C648.493 63.7832 648.425 63.569 648.425 63.3457C648.425 63.0632 648.504 62.8239 648.664 62.6279C648.823 62.432 649.06 62.2383 649.375 62.0469C648.983 61.8783 648.664 61.6048 648.418 61.2266C648.176 60.8438 648.056 60.3971 648.056 59.8867C648.056 59.0664 648.313 58.4307 648.828 57.9795C649.348 57.5283 650.086 57.3027 651.043 57.3027C651.257 57.3027 651.48 57.3187 651.713 57.3506C651.95 57.3779 652.128 57.4076 652.246 57.4395H654.864ZM648.924 66.1758C648.924 66.5221 649.079 66.7887 649.389 66.9756C649.703 67.1624 650.143 67.2559 650.708 67.2559C651.583 67.2559 652.235 67.1305 652.663 66.8799C653.091 66.6292 653.306 66.2965 653.306 65.8818C653.306 65.5537 653.187 65.319 652.95 65.1777C652.718 65.041 652.282 64.9727 651.644 64.9727H650.428C649.967 64.9727 649.601 65.0798 649.327 65.2939C649.058 65.5127 648.924 65.8066 648.924 66.1758ZM649.614 59.8867C649.614 60.3607 649.735 60.7253 649.976 60.9805C650.223 61.2357 650.573 61.3633 651.029 61.3633C651.959 61.3633 652.424 60.8665 652.424 59.873C652.424 59.3809 652.308 59.0026 652.075 58.7383C651.847 58.4694 651.499 58.335 651.029 58.335C650.564 58.335 650.211 58.4671 649.97 58.7314C649.733 58.9958 649.614 59.3809 649.614 59.8867Z" fill="#007EFF"/>
<rect x="581.5" y="44.5" width="102" height="31" rx="7.5" stroke="white"/>
<rect x="581.5" y="88.5" width="102" height="31" rx="7.5" stroke="white"/>
</g>
<defs>
<clipPath id="clip0">
<rect width="980" height="160" fill="white"/>
</clipPath>
<clipPath id="clip1">
<rect x="-50" y="-344" width="1113" height="809" fill="white"/>
</clipPath>
<clipPath id="clip2">
<path d="M808 65H919V117H808V65Z" fill="white"/>
</clipPath>
</defs>
</svg>
