<svg width="980" height="50" viewBox="0 0 980 50" fill="none" xmlns="http://www.w3.org/2000/svg">
<g clip-path="url(#clip0)">
<rect width="980" height="50" fill="white"/>
<rect width="980" height="160" fill="#007EFF"/>
<g opacity="0.1">
<g clip-path="url(#clip1)">
<path d="M981.875 -236.168L708.746 36.9272L709.699 37.88L982.828 -235.215L981.875 -236.168Z" fill="white"/>
<path d="M767.284 -229.015L494.155 44.0798L495.108 45.0326L768.237 -228.062L767.284 -229.015Z" fill="white"/>
<path d="M46.944 12.5058L33.1979 36.3091C36.1695 27.4427 40.8863 19.3712 46.944 12.5058Z" fill="white"/>
<path d="M58.1903 2.24457L29.977 51.1046C30.1589 49.3327 30.4082 47.5877 30.7317 45.8629L54.0193 5.53919C55.3669 4.38035 56.755 3.28214 58.1903 2.24457Z" fill="white"/>
<path d="M66.5323 -2.9837L29.6333 60.9144C29.5996 60.0924 29.5862 59.2772 29.5862 58.4485C29.5862 57.9769 29.5929 57.5052 29.5996 57.0336L63.1564 -1.07699C64.2682 -1.744 65.3868 -2.37733 66.5323 -2.9837Z" fill="white"/>
<path d="M73.7827 -6.3187L30.3678 68.8712C30.2128 67.8 30.0713 66.7288 29.9635 65.644L70.7909 -5.06554C71.768 -5.50347 72.772 -5.92119 73.7827 -6.3187Z" fill="white"/>
<path d="M80.3795 -8.52188L31.7492 75.703C31.5133 74.7733 31.2977 73.8368 31.1023 72.8935L77.637 -7.69317C78.54 -7.99635 79.4564 -8.26586 80.3795 -8.52188Z" fill="white"/>
<path d="M86.5248 -9.93674L33.5954 81.7331C33.299 80.9044 33.0159 80.0824 32.7599 79.2403L83.9508 -9.41794C84.7998 -9.61333 85.6556 -9.78851 86.5248 -9.93674Z" fill="white"/>
<path d="M92.3131 -10.752L35.7787 87.1567C35.435 86.4156 35.1183 85.661 34.8083 84.8997L89.8805 -10.4825C90.6891 -10.5835 91.5045 -10.6711 92.3131 -10.752Z" fill="white"/>
<path d="M97.825 -11.0753L38.2584 92.0818C37.881 91.4081 37.5171 90.7343 37.1667 90.0471L95.5138 -10.9945C96.2819 -11.0349 97.0501 -11.0619 97.825 -11.0753Z" fill="white"/>
<path d="M103.088 -10.9676L40.9806 96.5959C40.5763 95.9828 40.172 95.3562 39.788 94.7229L100.871 -11.0619C101.612 -11.0484 102.353 -11.0147 103.088 -10.9676Z" fill="white"/>
<path d="M108.148 -10.5094L43.9185 100.726C43.4805 100.16 43.056 99.5874 42.6382 99.0012L106.012 -10.752C106.726 -10.6778 107.441 -10.6037 108.148 -10.5094Z" fill="white"/>
<path d="M113.006 -9.69418L47.0518 104.526C46.5869 104.007 46.1354 103.475 45.6974 102.949L110.965 -10.0782C111.645 -9.96368 112.333 -9.8424 113.006 -9.69418Z" fill="white"/>
<path d="M117.683 -8.58252L50.3604 108.016C49.8752 107.538 49.3968 107.059 48.9251 106.567L115.708 -9.09457C116.376 -8.93961 117.029 -8.76443 117.683 -8.58252Z" fill="white"/>
<path d="M122.191 -7.16764L53.8373 111.209C53.3252 110.778 52.8198 110.334 52.3279 109.882L120.284 -7.80771C120.931 -7.60559 121.564 -7.39672 122.191 -7.16764Z" fill="white"/>
<path d="M126.537 -5.47652L57.4693 114.127C56.9369 113.736 56.4181 113.325 55.906 112.921L124.711 -6.23785C125.324 -5.99531 125.937 -5.73928 126.537 -5.47652Z" fill="white"/>
<path d="M130.728 -3.50919L61.2697 116.781C60.7171 116.424 60.1713 116.06 59.6323 115.683L128.963 -4.37833C129.556 -4.10209 130.149 -3.81237 130.728 -3.50919Z" fill="white"/>
<path d="M134.764 -1.27909L65.2183 119.16C64.6388 118.843 64.0796 118.52 63.5135 118.176L133.06 -2.2695C133.632 -1.9461 134.198 -1.61597 134.764 -1.27909Z" fill="white"/>
<path d="M138.639 1.22049L69.3152 121.282C68.7155 120.999 68.1225 120.709 67.5363 120.413L136.995 0.122284C137.554 0.472632 138.107 0.836458 138.639 1.22049Z" fill="white"/>
<path d="M142.379 3.98284L73.5738 123.135C72.9606 122.892 72.3407 122.636 71.741 122.373L140.809 2.76337C141.334 3.16761 141.86 3.57186 142.379 3.98284Z" fill="white"/>
<path d="M145.943 7.02142L77.9874 124.711C77.354 124.509 76.7139 124.3 76.0872 124.071L144.441 5.70087C144.946 6.11859 145.445 6.57001 145.943 7.02142Z" fill="white"/>
<path d="M149.353 10.343L82.5695 125.998C81.9091 125.843 81.2555 125.668 80.5952 125.479L147.918 8.88773C148.409 9.36609 148.881 9.85116 149.353 10.343Z" fill="white"/>
<path d="M152.58 13.961L87.32 126.989C86.6327 126.874 85.9521 126.746 85.2783 126.611L151.233 12.3845C151.691 12.8965 152.142 13.4288 152.58 13.961Z" fill="white"/>
<path d="M155.633 17.8957L92.2592 127.649C91.5449 127.581 90.8306 127.507 90.1231 127.413L154.353 16.1777C154.797 16.7369 155.222 17.3163 155.633 17.8957Z" fill="white"/>
<path d="M158.483 22.1807L97.4005 127.966C96.6593 127.945 95.9181 127.912 95.1836 127.864L157.291 20.301C157.708 20.9208 158.106 21.5474 158.483 22.1807Z" fill="white"/>
<path d="M161.104 26.8565L102.764 127.898C101.996 127.939 101.221 127.966 100.453 127.979L160.02 24.8218C160.397 25.4888 160.761 26.1625 161.104 26.8565Z" fill="white"/>
<path d="M163.47 31.9904L108.391 127.379C107.582 127.487 106.78 127.575 105.958 127.656L162.493 29.7469C162.836 30.4812 163.166 31.2291 163.47 31.9904Z" fill="white"/>
<path d="M165.525 37.6499L114.327 126.315C113.478 126.51 112.616 126.685 111.753 126.84L164.689 35.1706C164.986 35.9858 165.262 36.8212 165.525 37.6499Z" fill="white"/>
<path d="M167.182 44.0034L120.648 124.59C119.745 124.893 118.828 125.169 117.898 125.419L166.529 41.1938C166.771 42.1303 166.987 43.0601 167.182 44.0034Z" fill="white"/>
<path d="M168.314 51.2461L127.487 121.962C126.497 122.407 125.499 122.818 124.495 123.222L167.917 48.0256C168.072 49.0901 168.213 50.1681 168.314 51.2461Z" fill="white"/>
<path d="M320.061 21.3857L277.529 -21.1411L320.061 -63.6679L362.6 -21.1411L320.061 21.3857ZM279.429 -21.1478L320.061 19.479L360.693 -21.1478L320.061 -61.7747L279.429 -21.1478Z" fill="white"/>
</g>
</g>
<path d="M50.9414 16.7227H53.998L49.1445 31H45.8438L41 16.7227H44.0566L46.7422 25.2188C46.8919 25.7201 47.0449 26.306 47.2012 26.9766C47.3639 27.6406 47.4648 28.1029 47.5039 28.3633C47.5755 27.7643 47.8197 26.7161 48.2363 25.2188L50.9414 16.7227ZM59.5918 21.9961C58.9603 21.9961 58.4655 22.1979 58.1074 22.6016C57.7493 22.9987 57.5443 23.5651 57.4922 24.3008H61.6719C61.6589 23.5651 61.4668 22.9987 61.0957 22.6016C60.7246 22.1979 60.2233 21.9961 59.5918 21.9961ZM60.0117 31.1953C58.2539 31.1953 56.8802 30.7103 55.8906 29.7402C54.901 28.7702 54.4062 27.3965 54.4062 25.6191C54.4062 23.7897 54.862 22.377 55.7734 21.3809C56.6914 20.3783 57.9577 19.877 59.5723 19.877C61.1152 19.877 62.3164 20.3164 63.1758 21.1953C64.0352 22.0742 64.4648 23.2884 64.4648 24.8379V26.2832H57.4238C57.4564 27.1296 57.707 27.7904 58.1758 28.2656C58.6445 28.7409 59.3021 28.9785 60.1484 28.9785C60.806 28.9785 61.4277 28.9102 62.0137 28.7734C62.5996 28.6367 63.2116 28.4186 63.8496 28.1191V30.4238C63.3288 30.6842 62.7721 30.8763 62.1797 31C61.5872 31.1302 60.8646 31.1953 60.0117 31.1953ZM72.4805 19.877C72.8841 19.877 73.2194 19.9062 73.4863 19.9648L73.2617 22.7578C73.0208 22.6927 72.7279 22.6602 72.3828 22.6602C71.4323 22.6602 70.6901 22.9043 70.1562 23.3926C69.6289 23.8809 69.3652 24.5645 69.3652 25.4434V31H66.3867V20.082H68.6426L69.082 21.918H69.2285C69.5671 21.306 70.0228 20.8145 70.5957 20.4434C71.1751 20.0658 71.8034 19.877 72.4805 19.877ZM74.8418 17.2598C74.8418 16.2897 75.3822 15.8047 76.4629 15.8047C77.5436 15.8047 78.084 16.2897 78.084 17.2598C78.084 17.722 77.9473 18.0833 77.6738 18.3438C77.4069 18.5977 77.0033 18.7246 76.4629 18.7246C75.3822 18.7246 74.8418 18.2363 74.8418 17.2598ZM77.9473 31H74.9688V20.082H77.9473V31ZM86.6172 22.3184H84.0391V31H81.0605V22.3184H79.4199V20.8828L81.0605 20.082V19.2812C81.0605 18.0378 81.3665 17.1296 81.9785 16.5566C82.5905 15.9837 83.5703 15.6973 84.918 15.6973C85.9466 15.6973 86.8613 15.8503 87.6621 16.1562L86.9004 18.3438C86.3014 18.1549 85.748 18.0605 85.2402 18.0605C84.8171 18.0605 84.5111 18.1875 84.3223 18.4414C84.1335 18.6888 84.0391 19.0078 84.0391 19.3984V20.082H86.6172V22.3184ZM88.1992 17.2598C88.1992 16.2897 88.7396 15.8047 89.8203 15.8047C90.901 15.8047 91.4414 16.2897 91.4414 17.2598C91.4414 17.722 91.3047 18.0833 91.0312 18.3438C90.7643 18.5977 90.3607 18.7246 89.8203 18.7246C88.7396 18.7246 88.1992 18.2363 88.1992 17.2598ZM91.3047 31H88.3262V20.082H91.3047V31ZM98.4512 21.9961C97.8197 21.9961 97.3249 22.1979 96.9668 22.6016C96.6087 22.9987 96.4036 23.5651 96.3516 24.3008H100.531C100.518 23.5651 100.326 22.9987 99.9551 22.6016C99.584 22.1979 99.0827 21.9961 98.4512 21.9961ZM98.8711 31.1953C97.1133 31.1953 95.7396 30.7103 94.75 29.7402C93.7604 28.7702 93.2656 27.3965 93.2656 25.6191C93.2656 23.7897 93.7214 22.377 94.6328 21.3809C95.5508 20.3783 96.8171 19.877 98.4316 19.877C99.9746 19.877 101.176 20.3164 102.035 21.1953C102.895 22.0742 103.324 23.2884 103.324 24.8379V26.2832H96.2832C96.3158 27.1296 96.5664 27.7904 97.0352 28.2656C97.5039 28.7409 98.1615 28.9785 99.0078 28.9785C99.6654 28.9785 100.287 28.9102 100.873 28.7734C101.459 28.6367 102.071 28.4186 102.709 28.1191V30.4238C102.188 30.6842 101.632 30.8763 101.039 31C100.447 31.1302 99.724 31.1953 98.8711 31.1953ZM108.703 31.1953C107.421 31.1953 106.411 30.6973 105.676 29.7012C104.947 28.7051 104.582 27.3249 104.582 25.5605C104.582 23.7702 104.953 22.377 105.695 21.3809C106.444 20.3783 107.473 19.877 108.781 19.877C110.155 19.877 111.203 20.4108 111.926 21.4785H112.023C111.874 20.6647 111.799 19.9388 111.799 19.3008V15.8047H114.787V31H112.502L111.926 29.584H111.799C111.122 30.6582 110.09 31.1953 108.703 31.1953ZM109.748 28.8223C110.51 28.8223 111.066 28.6009 111.418 28.1582C111.776 27.7155 111.971 26.9635 112.004 25.9023V25.5801C112.004 24.4082 111.822 23.5684 111.457 23.0605C111.099 22.5527 110.513 22.2988 109.699 22.2988C109.035 22.2988 108.518 22.582 108.146 23.1484C107.782 23.7083 107.6 24.5254 107.6 25.5996C107.6 26.6738 107.785 27.4811 108.156 28.0215C108.527 28.5553 109.058 28.8223 109.748 28.8223ZM125.359 23.0605H126.336C127.293 23.0605 127.999 22.901 128.455 22.582C128.911 22.263 129.139 21.7617 129.139 21.0781C129.139 20.401 128.904 19.9193 128.436 19.6328C127.973 19.3464 127.254 19.2031 126.277 19.2031H125.359V23.0605ZM125.359 25.5215V31H122.332V16.7227H126.492C128.432 16.7227 129.868 17.0775 130.799 17.7871C131.73 18.4902 132.195 19.5612 132.195 21C132.195 21.8398 131.964 22.5885 131.502 23.2461C131.04 23.8971 130.385 24.4082 129.539 24.7793C131.688 27.9889 133.087 30.0625 133.738 31H130.379L126.971 25.5215H125.359ZM139.322 21.9961C138.691 21.9961 138.196 22.1979 137.838 22.6016C137.48 22.9987 137.275 23.5651 137.223 24.3008H141.402C141.389 23.5651 141.197 22.9987 140.826 22.6016C140.455 22.1979 139.954 21.9961 139.322 21.9961ZM139.742 31.1953C137.984 31.1953 136.611 30.7103 135.621 29.7402C134.632 28.7702 134.137 27.3965 134.137 25.6191C134.137 23.7897 134.592 22.377 135.504 21.3809C136.422 20.3783 137.688 19.877 139.303 19.877C140.846 19.877 142.047 20.3164 142.906 21.1953C143.766 22.0742 144.195 23.2884 144.195 24.8379V26.2832H137.154C137.187 27.1296 137.438 27.7904 137.906 28.2656C138.375 28.7409 139.033 28.9785 139.879 28.9785C140.536 28.9785 141.158 28.9102 141.744 28.7734C142.33 28.6367 142.942 28.4186 143.58 28.1191V30.4238C143.059 30.6842 142.503 30.8763 141.91 31C141.318 31.1302 140.595 31.1953 139.742 31.1953ZM152.113 31.1953C150.831 31.1953 149.825 30.7298 149.096 29.7988H148.939C149.044 30.7103 149.096 31.2376 149.096 31.3809V35.8047H146.117V20.082H148.539L148.959 21.498H149.096C149.792 20.4173 150.824 19.877 152.191 19.877C153.48 19.877 154.49 20.375 155.219 21.3711C155.948 22.3672 156.312 23.7507 156.312 25.5215C156.312 26.6868 156.14 27.6992 155.795 28.5586C155.456 29.418 154.971 30.0723 154.34 30.5215C153.708 30.9707 152.966 31.1953 152.113 31.1953ZM151.234 22.2598C150.499 22.2598 149.962 22.4876 149.623 22.9434C149.285 23.3926 149.109 24.138 149.096 25.1797V25.502C149.096 26.6738 149.268 27.5137 149.613 28.0215C149.965 28.5293 150.518 28.7832 151.273 28.7832C152.608 28.7832 153.275 27.6829 153.275 25.4824C153.275 24.4082 153.109 23.6042 152.777 23.0703C152.452 22.5299 151.938 22.2598 151.234 22.2598ZM160.646 25.5215C160.646 26.6022 160.822 27.4193 161.174 27.9727C161.532 28.526 162.111 28.8027 162.912 28.8027C163.706 28.8027 164.276 28.5293 164.621 27.9824C164.973 27.429 165.148 26.6087 165.148 25.5215C165.148 24.4408 164.973 23.6302 164.621 23.0898C164.27 22.5495 163.693 22.2793 162.893 22.2793C162.098 22.2793 161.525 22.5495 161.174 23.0898C160.822 23.6237 160.646 24.4342 160.646 25.5215ZM168.195 25.5215C168.195 27.2988 167.727 28.6888 166.789 29.6914C165.852 30.694 164.546 31.1953 162.873 31.1953C161.825 31.1953 160.9 30.9674 160.1 30.5117C159.299 30.0495 158.684 29.3887 158.254 28.5293C157.824 27.6699 157.609 26.6673 157.609 25.5215C157.609 23.7376 158.075 22.3509 159.006 21.3613C159.937 20.3717 161.245 19.877 162.932 19.877C163.98 19.877 164.904 20.1048 165.705 20.5605C166.506 21.0163 167.121 21.6706 167.551 22.5234C167.98 23.3763 168.195 24.3757 168.195 25.5215ZM177.773 27.7578C177.773 28.8776 177.383 29.7305 176.602 30.3164C175.827 30.9023 174.665 31.1953 173.115 31.1953C172.321 31.1953 171.644 31.14 171.084 31.0293C170.524 30.9251 170 30.7689 169.512 30.5605V28.0996C170.065 28.36 170.687 28.5781 171.377 28.7539C172.074 28.9297 172.686 29.0176 173.213 29.0176C174.294 29.0176 174.834 28.7051 174.834 28.0801C174.834 27.8457 174.762 27.6569 174.619 27.5137C174.476 27.3639 174.229 27.1979 173.877 27.0156C173.525 26.8268 173.057 26.6087 172.471 26.3613C171.631 26.0098 171.012 25.6842 170.615 25.3848C170.225 25.0853 169.938 24.7435 169.756 24.3594C169.58 23.9688 169.492 23.4902 169.492 22.9238C169.492 21.9538 169.867 21.2051 170.615 20.6777C171.37 20.1439 172.438 19.877 173.818 19.877C175.133 19.877 176.413 20.1634 177.656 20.7363L176.758 22.8848C176.211 22.6504 175.7 22.4583 175.225 22.3086C174.749 22.1589 174.264 22.084 173.77 22.084C172.891 22.084 172.451 22.3216 172.451 22.7969C172.451 23.0638 172.591 23.2949 172.871 23.4902C173.158 23.6855 173.779 23.9753 174.736 24.3594C175.589 24.7044 176.214 25.0267 176.611 25.3262C177.008 25.6257 177.301 25.9707 177.49 26.3613C177.679 26.752 177.773 27.2174 177.773 27.7578ZM179.471 17.2598C179.471 16.2897 180.011 15.8047 181.092 15.8047C182.173 15.8047 182.713 16.2897 182.713 17.2598C182.713 17.722 182.576 18.0833 182.303 18.3438C182.036 18.5977 181.632 18.7246 181.092 18.7246C180.011 18.7246 179.471 18.2363 179.471 17.2598ZM182.576 31H179.598V20.082H182.576V31ZM189.811 28.8223C190.331 28.8223 190.956 28.7083 191.686 28.4805V30.6973C190.943 31.0293 190.032 31.1953 188.951 31.1953C187.76 31.1953 186.891 30.8958 186.344 30.2969C185.803 29.6914 185.533 28.7865 185.533 27.582V22.3184H184.107V21.0586L185.748 20.0625L186.607 17.7578H188.512V20.082H191.568V22.3184H188.512V27.582C188.512 28.0052 188.629 28.3177 188.863 28.5195C189.104 28.7214 189.42 28.8223 189.811 28.8223ZM195.775 25.5215C195.775 26.6022 195.951 27.4193 196.303 27.9727C196.661 28.526 197.24 28.8027 198.041 28.8027C198.835 28.8027 199.405 28.5293 199.75 27.9824C200.102 27.429 200.277 26.6087 200.277 25.5215C200.277 24.4408 200.102 23.6302 199.75 23.0898C199.398 22.5495 198.822 22.2793 198.021 22.2793C197.227 22.2793 196.654 22.5495 196.303 23.0898C195.951 23.6237 195.775 24.4342 195.775 25.5215ZM203.324 25.5215C203.324 27.2988 202.855 28.6888 201.918 29.6914C200.98 30.694 199.675 31.1953 198.002 31.1953C196.954 31.1953 196.029 30.9674 195.229 30.5117C194.428 30.0495 193.812 29.3887 193.383 28.5293C192.953 27.6699 192.738 26.6673 192.738 25.5215C192.738 23.7376 193.204 22.3509 194.135 21.3613C195.066 20.3717 196.374 19.877 198.061 19.877C199.109 19.877 200.033 20.1048 200.834 20.5605C201.635 21.0163 202.25 21.6706 202.68 22.5234C203.109 23.3763 203.324 24.3757 203.324 25.5215ZM211.379 19.877C211.783 19.877 212.118 19.9062 212.385 19.9648L212.16 22.7578C211.919 22.6927 211.626 22.6602 211.281 22.6602C210.331 22.6602 209.589 22.9043 209.055 23.3926C208.527 23.8809 208.264 24.5645 208.264 25.4434V31H205.285V20.082H207.541L207.98 21.918H208.127C208.465 21.306 208.921 20.8145 209.494 20.4434C210.074 20.0658 210.702 19.877 211.379 19.877ZM212.305 20.082H215.566L217.627 26.2246C217.803 26.7585 217.923 27.39 217.988 28.1191H218.047C218.118 27.4486 218.258 26.8171 218.467 26.2246L220.488 20.082H223.682L219.062 32.3965C218.639 33.5358 218.034 34.3887 217.246 34.9551C216.465 35.5215 215.55 35.8047 214.502 35.8047C213.988 35.8047 213.483 35.7493 212.988 35.6387V33.2754C213.346 33.36 213.737 33.4023 214.16 33.4023C214.688 33.4023 215.146 33.2396 215.537 32.9141C215.934 32.5951 216.243 32.11 216.465 31.459L216.641 30.9219L212.305 20.082Z" fill="white"/>
<path d="M270.407 24.5791H274.085V29.5967C273.483 29.7926 272.905 29.9316 272.349 30.0137C271.797 30.0957 271.2 30.1367 270.558 30.1367C269.045 30.1367 267.878 29.6901 267.058 28.7969C266.237 27.8991 265.827 26.6344 265.827 25.0029C265.827 23.3942 266.29 22.1364 267.215 21.2295C268.14 20.318 269.414 19.8623 271.036 19.8623C272.08 19.8623 273.069 20.0628 274.003 20.4639L273.429 21.8242C272.618 21.4505 271.806 21.2637 270.995 21.2637C269.929 21.2637 269.086 21.5986 268.466 22.2686C267.846 22.9385 267.536 23.8545 267.536 25.0166C267.536 26.238 267.814 27.1676 268.37 27.8057C268.931 28.4391 269.735 28.7559 270.783 28.7559C271.312 28.7559 271.877 28.6898 272.479 28.5576V25.9805H270.407V24.5791ZM279.482 30.1367C278.306 30.1367 277.386 29.7949 276.72 29.1113C276.06 28.4232 275.729 27.4775 275.729 26.2744C275.729 25.0394 276.037 24.0687 276.652 23.3623C277.267 22.6559 278.113 22.3027 279.188 22.3027C280.186 22.3027 280.975 22.6058 281.553 23.2119C282.132 23.818 282.422 24.652 282.422 25.7139V26.582H277.383C277.406 27.3158 277.604 27.8809 277.978 28.2773C278.352 28.6693 278.878 28.8652 279.557 28.8652C280.004 28.8652 280.419 28.8242 280.801 28.7422C281.189 28.6556 281.603 28.5143 282.046 28.3184V29.624C281.654 29.8109 281.257 29.943 280.856 30.0205C280.455 30.098 279.997 30.1367 279.482 30.1367ZM279.188 23.5195C278.678 23.5195 278.268 23.6813 277.958 24.0049C277.652 24.3285 277.47 24.8001 277.411 25.4199H280.842C280.833 24.7956 280.683 24.3239 280.391 24.0049C280.1 23.6813 279.699 23.5195 279.188 23.5195ZM286.923 28.8379C287.315 28.8379 287.707 28.7764 288.099 28.6533V29.8633C287.921 29.9408 287.691 30.0046 287.408 30.0547C287.13 30.1094 286.841 30.1367 286.54 30.1367C285.018 30.1367 284.257 29.3346 284.257 27.7305V23.6562H283.225V22.9453L284.332 22.3574L284.879 20.7578H285.87V22.4395H288.024V23.6562H285.87V27.7031C285.87 28.0905 285.966 28.3776 286.157 28.5645C286.353 28.7467 286.609 28.8379 286.923 28.8379ZM298.907 27.2861C298.907 28.1748 298.586 28.8721 297.943 29.3779C297.3 29.8838 296.414 30.1367 295.284 30.1367C294.154 30.1367 293.228 29.9613 292.508 29.6104V28.0654C292.964 28.2796 293.447 28.4482 293.958 28.5713C294.473 28.6943 294.951 28.7559 295.393 28.7559C296.04 28.7559 296.516 28.6328 296.822 28.3867C297.132 28.1406 297.287 27.8102 297.287 27.3955C297.287 27.0218 297.145 26.7051 296.863 26.4453C296.58 26.1855 295.997 25.8779 295.113 25.5225C294.201 25.1533 293.559 24.7318 293.185 24.2578C292.811 23.7839 292.625 23.2142 292.625 22.5488C292.625 21.7148 292.921 21.0586 293.513 20.5801C294.106 20.1016 294.901 19.8623 295.899 19.8623C296.856 19.8623 297.808 20.0719 298.756 20.4912L298.237 21.8242C297.348 21.4505 296.555 21.2637 295.858 21.2637C295.329 21.2637 294.928 21.3799 294.655 21.6123C294.381 21.8402 294.245 22.1432 294.245 22.5215C294.245 22.7812 294.299 23.0046 294.409 23.1914C294.518 23.3737 294.698 23.5469 294.949 23.7109C295.199 23.875 295.651 24.0915 296.302 24.3604C297.036 24.6657 297.574 24.9505 297.916 25.2148C298.257 25.4792 298.508 25.7777 298.668 26.1104C298.827 26.443 298.907 26.835 298.907 27.2861ZM305.862 30L305.637 29.0088H305.555C305.332 29.3597 305.013 29.6354 304.598 29.8359C304.188 30.0365 303.718 30.1367 303.19 30.1367C302.274 30.1367 301.59 29.9089 301.139 29.4531C300.688 28.9974 300.462 28.307 300.462 27.3818V22.4395H302.082V27.1016C302.082 27.6803 302.201 28.1156 302.438 28.4072C302.675 28.6943 303.046 28.8379 303.552 28.8379C304.226 28.8379 304.721 28.6374 305.035 28.2363C305.354 27.8307 305.514 27.154 305.514 26.2061V22.4395H307.127V30H305.862ZM313.112 30.1367C312.155 30.1367 311.412 29.7926 310.884 29.1045H310.788C310.852 29.7425 310.884 30.1299 310.884 30.2666V33.3633H309.277V22.4395H310.576C310.612 22.5807 310.688 22.918 310.802 23.4512H310.884C311.385 22.6855 312.137 22.3027 313.139 22.3027C314.083 22.3027 314.817 22.6445 315.341 23.3281C315.869 24.0117 316.134 24.971 316.134 26.2061C316.134 27.4411 315.865 28.4049 315.327 29.0977C314.794 29.7904 314.056 30.1367 313.112 30.1367ZM312.722 23.6152C312.084 23.6152 311.617 23.8021 311.321 24.1758C311.029 24.5495 310.884 25.1465 310.884 25.9668V26.2061C310.884 27.1266 311.029 27.7943 311.321 28.209C311.613 28.6191 312.089 28.8242 312.75 28.8242C313.306 28.8242 313.734 28.5964 314.035 28.1406C314.336 27.6849 314.486 27.0355 314.486 26.1924C314.486 25.3447 314.336 24.7044 314.035 24.2715C313.739 23.834 313.301 23.6152 312.722 23.6152ZM321.695 30.1367C320.738 30.1367 319.995 29.7926 319.466 29.1045H319.371C319.434 29.7425 319.466 30.1299 319.466 30.2666V33.3633H317.86V22.4395H319.159C319.195 22.5807 319.27 22.918 319.384 23.4512H319.466C319.968 22.6855 320.72 22.3027 321.722 22.3027C322.666 22.3027 323.399 22.6445 323.923 23.3281C324.452 24.0117 324.716 24.971 324.716 26.2061C324.716 27.4411 324.447 28.4049 323.91 29.0977C323.376 29.7904 322.638 30.1367 321.695 30.1367ZM321.305 23.6152C320.667 23.6152 320.2 23.8021 319.904 24.1758C319.612 24.5495 319.466 25.1465 319.466 25.9668V26.2061C319.466 27.1266 319.612 27.7943 319.904 28.209C320.195 28.6191 320.672 28.8242 321.333 28.8242C321.888 28.8242 322.317 28.5964 322.618 28.1406C322.918 27.6849 323.069 27.0355 323.069 26.1924C323.069 25.3447 322.918 24.7044 322.618 24.2715C322.321 23.834 321.884 23.6152 321.305 23.6152ZM333.149 26.2061C333.149 27.4411 332.832 28.4049 332.198 29.0977C331.565 29.7904 330.683 30.1367 329.553 30.1367C328.846 30.1367 328.222 29.9772 327.68 29.6582C327.137 29.3392 326.72 28.8812 326.429 28.2842C326.137 27.6872 325.991 26.9945 325.991 26.2061C325.991 24.9801 326.306 24.0231 326.935 23.335C327.564 22.6468 328.45 22.3027 329.594 22.3027C330.688 22.3027 331.554 22.6559 332.192 23.3623C332.83 24.0641 333.149 25.012 333.149 26.2061ZM327.646 26.2061C327.646 27.9515 328.29 28.8242 329.58 28.8242C330.856 28.8242 331.494 27.9515 331.494 26.2061C331.494 24.4788 330.852 23.6152 329.567 23.6152C328.892 23.6152 328.402 23.8385 328.097 24.2852C327.796 24.7318 327.646 25.3721 327.646 26.2061ZM338.696 22.3027C339.02 22.3027 339.286 22.3255 339.496 22.3711L339.339 23.8682C339.111 23.8135 338.874 23.7861 338.628 23.7861C337.985 23.7861 337.463 23.9958 337.062 24.415C336.666 24.8343 336.468 25.3789 336.468 26.0488V30H334.861V22.4395H336.119L336.331 23.7725H336.413C336.664 23.3213 336.989 22.9635 337.39 22.6992C337.796 22.4349 338.231 22.3027 338.696 22.3027ZM343.58 28.8379C343.972 28.8379 344.364 28.7764 344.756 28.6533V29.8633C344.579 29.9408 344.348 30.0046 344.066 30.0547C343.788 30.1094 343.498 30.1367 343.198 30.1367C341.676 30.1367 340.914 29.3346 340.914 27.7305V23.6562H339.882V22.9453L340.99 22.3574L341.537 20.7578H342.528V22.4395H344.681V23.6562H342.528V27.7031C342.528 28.0905 342.623 28.3776 342.815 28.5645C343.011 28.7467 343.266 28.8379 343.58 28.8379Z" fill="white"/>
<path d="M387.52 30L386.521 27.2246H382.7L381.723 30H380L383.739 19.9648H385.517L389.256 30H387.52ZM386.091 25.8164L385.154 23.0957C385.086 22.9134 384.99 22.6263 384.867 22.2344C384.749 21.8424 384.667 21.5553 384.621 21.373C384.498 21.9336 384.318 22.5465 384.081 23.2119L383.179 25.8164H386.091ZM393.313 30.1367C392.169 30.1367 391.299 29.804 390.702 29.1387C390.109 28.4688 389.813 27.5094 389.813 26.2607C389.813 24.9893 390.123 24.0117 390.743 23.3281C391.367 22.6445 392.267 22.3027 393.443 22.3027C394.241 22.3027 394.958 22.4508 395.596 22.7471L395.111 24.0391C394.432 23.7747 393.871 23.6426 393.429 23.6426C392.121 23.6426 391.467 24.5107 391.467 26.2471C391.467 27.0947 391.629 27.7327 391.953 28.1611C392.281 28.585 392.759 28.7969 393.388 28.7969C394.104 28.7969 394.781 28.6191 395.419 28.2637V29.665C395.131 29.8337 394.824 29.9544 394.496 30.0273C394.172 30.1003 393.778 30.1367 393.313 30.1367ZM400.105 30.1367C398.961 30.1367 398.09 29.804 397.493 29.1387C396.901 28.4688 396.605 27.5094 396.605 26.2607C396.605 24.9893 396.915 24.0117 397.534 23.3281C398.159 22.6445 399.059 22.3027 400.235 22.3027C401.032 22.3027 401.75 22.4508 402.388 22.7471L401.903 24.0391C401.224 23.7747 400.663 23.6426 400.221 23.6426C398.913 23.6426 398.259 24.5107 398.259 26.2471C398.259 27.0947 398.421 27.7327 398.744 28.1611C399.073 28.585 399.551 28.7969 400.18 28.7969C400.895 28.7969 401.572 28.6191 402.21 28.2637V29.665C401.923 29.8337 401.616 29.9544 401.287 30.0273C400.964 30.1003 400.57 30.1367 400.105 30.1367ZM407.149 30.1367C405.974 30.1367 405.053 29.7949 404.388 29.1113C403.727 28.4232 403.396 27.4775 403.396 26.2744C403.396 25.0394 403.704 24.0687 404.319 23.3623C404.934 22.6559 405.78 22.3027 406.855 22.3027C407.853 22.3027 408.642 22.6058 409.221 23.2119C409.799 23.818 410.089 24.652 410.089 25.7139V26.582H405.051C405.073 27.3158 405.272 27.8809 405.645 28.2773C406.019 28.6693 406.545 28.8652 407.225 28.8652C407.671 28.8652 408.086 28.8242 408.469 28.7422C408.856 28.6556 409.271 28.5143 409.713 28.3184V29.624C409.321 29.8109 408.924 29.943 408.523 30.0205C408.122 30.098 407.664 30.1367 407.149 30.1367ZM406.855 23.5195C406.345 23.5195 405.935 23.6813 405.625 24.0049C405.32 24.3285 405.137 24.8001 405.078 25.4199H408.51C408.501 24.7956 408.35 24.3239 408.059 24.0049C407.767 23.6813 407.366 23.5195 406.855 23.5195ZM416.853 27.8467C416.853 28.585 416.584 29.1523 416.046 29.5488C415.509 29.9408 414.739 30.1367 413.736 30.1367C412.729 30.1367 411.92 29.984 411.309 29.6787V28.291C412.198 28.7012 413.025 28.9062 413.791 28.9062C414.78 28.9062 415.274 28.6077 415.274 28.0107C415.274 27.8193 415.219 27.6598 415.11 27.5322C415.001 27.4046 414.821 27.2725 414.57 27.1357C414.319 26.999 413.971 26.8441 413.524 26.6709C412.654 26.3337 412.063 25.9964 411.753 25.6592C411.448 25.3219 411.295 24.8844 411.295 24.3467C411.295 23.6995 411.555 23.1982 412.075 22.8428C412.599 22.4827 413.31 22.3027 414.208 22.3027C415.096 22.3027 415.937 22.4827 416.73 22.8428L416.211 24.0527C415.395 23.7155 414.709 23.5469 414.153 23.5469C413.305 23.5469 412.881 23.7884 412.881 24.2715C412.881 24.5085 412.991 24.709 413.21 24.873C413.433 25.0371 413.916 25.2627 414.659 25.5498C415.283 25.7913 415.737 26.0124 416.019 26.2129C416.302 26.4134 416.511 26.6458 416.648 26.9102C416.785 27.1699 416.853 27.4821 416.853 27.8467ZM423.535 27.8467C423.535 28.585 423.266 29.1523 422.729 29.5488C422.191 29.9408 421.421 30.1367 420.418 30.1367C419.411 30.1367 418.602 29.984 417.991 29.6787V28.291C418.88 28.7012 419.707 28.9062 420.473 28.9062C421.462 28.9062 421.956 28.6077 421.956 28.0107C421.956 27.8193 421.902 27.6598 421.792 27.5322C421.683 27.4046 421.503 27.2725 421.252 27.1357C421.001 26.999 420.653 26.8441 420.206 26.6709C419.336 26.3337 418.746 25.9964 418.436 25.6592C418.13 25.3219 417.978 24.8844 417.978 24.3467C417.978 23.6995 418.237 23.1982 418.757 22.8428C419.281 22.4827 419.992 22.3027 420.89 22.3027C421.779 22.3027 422.619 22.4827 423.412 22.8428L422.893 24.0527C422.077 23.7155 421.391 23.5469 420.835 23.5469C419.987 23.5469 419.564 23.7884 419.564 24.2715C419.564 24.5085 419.673 24.709 419.892 24.873C420.115 25.0371 420.598 25.2627 421.341 25.5498C421.965 25.7913 422.419 26.0124 422.701 26.2129C422.984 26.4134 423.194 26.6458 423.33 26.9102C423.467 27.1699 423.535 27.4821 423.535 27.8467ZM435.423 23.0273C435.423 24.071 435.082 24.8708 434.398 25.4268C433.714 25.9827 432.741 26.2607 431.479 26.2607H430.44V30H428.806V20.0059H431.684C432.933 20.0059 433.867 20.2611 434.487 20.7715C435.111 21.2819 435.423 22.0339 435.423 23.0273ZM430.44 24.8867H431.308C432.147 24.8867 432.762 24.7409 433.154 24.4492C433.546 24.1576 433.742 23.7018 433.742 23.082C433.742 22.5078 433.566 22.0794 433.215 21.7969C432.864 21.5143 432.318 21.373 431.575 21.373H430.44V24.8867ZM440.943 22.3027C441.267 22.3027 441.534 22.3255 441.743 22.3711L441.586 23.8682C441.358 23.8135 441.121 23.7861 440.875 23.7861C440.233 23.7861 439.711 23.9958 439.31 24.415C438.913 24.8343 438.715 25.3789 438.715 26.0488V30H437.109V22.4395H438.366L438.578 23.7725H438.66C438.911 23.3213 439.237 22.9635 439.638 22.6992C440.043 22.4349 440.479 22.3027 440.943 22.3027ZM446.313 30.1367C445.137 30.1367 444.217 29.7949 443.552 29.1113C442.891 28.4232 442.56 27.4775 442.56 26.2744C442.56 25.0394 442.868 24.0687 443.483 23.3623C444.098 22.6559 444.944 22.3027 446.019 22.3027C447.017 22.3027 447.806 22.6058 448.385 23.2119C448.963 23.818 449.253 24.652 449.253 25.7139V26.582H444.215C444.237 27.3158 444.436 27.8809 444.809 28.2773C445.183 28.6693 445.709 28.8652 446.388 28.8652C446.835 28.8652 447.25 28.8242 447.633 28.7422C448.02 28.6556 448.435 28.5143 448.877 28.3184V29.624C448.485 29.8109 448.088 29.943 447.687 30.0205C447.286 30.098 446.828 30.1367 446.313 30.1367ZM446.019 23.5195C445.509 23.5195 445.099 23.6813 444.789 24.0049C444.483 24.3285 444.301 24.8001 444.242 25.4199H447.674C447.664 24.7956 447.514 24.3239 447.222 24.0049C446.931 23.6813 446.53 23.5195 446.019 23.5195ZM457.309 30H455.696V25.3379C455.696 24.7591 455.586 24.3285 455.368 24.0459C455.149 23.7588 454.807 23.6152 454.342 23.6152C453.722 23.6152 453.267 23.818 452.975 24.2236C452.688 24.6247 452.544 25.2946 452.544 26.2334V30H450.938V22.4395H452.196L452.421 23.4307H452.503C452.713 23.0706 453.016 22.7926 453.412 22.5967C453.814 22.4007 454.253 22.3027 454.732 22.3027C455.894 22.3027 456.664 22.6992 457.042 23.4922H457.152C457.375 23.1185 457.69 22.8268 458.095 22.6172C458.501 22.4076 458.966 22.3027 459.49 22.3027C460.392 22.3027 461.048 22.5306 461.458 22.9863C461.873 23.4421 462.08 24.137 462.08 25.0713V30H460.474V25.3379C460.474 24.7591 460.362 24.3285 460.139 24.0459C459.92 23.7588 459.579 23.6152 459.114 23.6152C458.489 23.6152 458.031 23.8112 457.74 24.2031C457.453 24.5905 457.309 25.1875 457.309 25.9941V30ZM465.789 30H464.183V22.4395H465.789V30ZM464.087 20.4365C464.087 20.1494 464.164 19.9284 464.319 19.7734C464.479 19.6185 464.704 19.541 464.996 19.541C465.279 19.541 465.497 19.6185 465.652 19.7734C465.812 19.9284 465.892 20.1494 465.892 20.4365C465.892 20.71 465.812 20.9264 465.652 21.0859C465.497 21.2409 465.279 21.3184 464.996 21.3184C464.704 21.3184 464.479 21.2409 464.319 21.0859C464.164 20.9264 464.087 20.71 464.087 20.4365ZM473.285 30L473.059 29.0088H472.977C472.754 29.3597 472.435 29.6354 472.02 29.8359C471.61 30.0365 471.141 30.1367 470.612 30.1367C469.696 30.1367 469.012 29.9089 468.561 29.4531C468.11 28.9974 467.884 28.307 467.884 27.3818V22.4395H469.505V27.1016C469.505 27.6803 469.623 28.1156 469.86 28.4072C470.097 28.6943 470.468 28.8379 470.974 28.8379C471.649 28.8379 472.143 28.6374 472.458 28.2363C472.777 27.8307 472.936 27.154 472.936 26.2061V22.4395H474.549V30H473.285ZM483.071 30H481.457V25.3379C481.457 24.7591 481.348 24.3285 481.129 24.0459C480.91 23.7588 480.569 23.6152 480.104 23.6152C479.484 23.6152 479.028 23.818 478.737 24.2236C478.45 24.6247 478.306 25.2946 478.306 26.2334V30H476.7V22.4395H477.957L478.183 23.4307H478.265C478.475 23.0706 478.778 22.7926 479.174 22.5967C479.575 22.4007 480.015 22.3027 480.493 22.3027C481.656 22.3027 482.426 22.6992 482.804 23.4922H482.913C483.137 23.1185 483.451 22.8268 483.857 22.6172C484.262 22.4076 484.727 22.3027 485.251 22.3027C486.154 22.3027 486.81 22.5306 487.22 22.9863C487.635 23.4421 487.842 24.137 487.842 25.0713V30H486.236V25.3379C486.236 24.7591 486.124 24.3285 485.901 24.0459C485.682 23.7588 485.34 23.6152 484.875 23.6152C484.251 23.6152 483.793 23.8112 483.501 24.2031C483.214 24.5905 483.071 25.1875 483.071 25.9941V30ZM497.864 21.2637C496.925 21.2637 496.187 21.5964 495.649 22.2617C495.111 22.9271 494.842 23.8454 494.842 25.0166C494.842 26.2425 495.1 27.1699 495.615 27.7988C496.134 28.4277 496.884 28.7422 497.864 28.7422C498.288 28.7422 498.698 28.7012 499.094 28.6191C499.491 28.5326 499.903 28.4232 500.332 28.291V29.6924C499.548 29.9886 498.659 30.1367 497.666 30.1367C496.203 30.1367 495.079 29.6947 494.296 28.8105C493.512 27.9219 493.12 26.6527 493.12 25.0029C493.12 23.9639 493.309 23.0547 493.687 22.2754C494.07 21.4961 494.621 20.8991 495.341 20.4844C496.061 20.0697 496.907 19.8623 497.878 19.8623C498.898 19.8623 499.842 20.0765 500.708 20.5049L500.12 21.8652C499.782 21.7057 499.425 21.5667 499.046 21.4482C498.673 21.3252 498.279 21.2637 497.864 21.2637ZM508.88 26.2061C508.88 27.4411 508.563 28.4049 507.93 29.0977C507.296 29.7904 506.415 30.1367 505.284 30.1367C504.578 30.1367 503.954 29.9772 503.411 29.6582C502.869 29.3392 502.452 28.8812 502.16 28.2842C501.869 27.6872 501.723 26.9945 501.723 26.2061C501.723 24.9801 502.037 24.0231 502.666 23.335C503.295 22.6468 504.182 22.3027 505.325 22.3027C506.419 22.3027 507.285 22.6559 507.923 23.3623C508.561 24.0641 508.88 25.012 508.88 26.2061ZM503.377 26.2061C503.377 27.9515 504.022 28.8242 505.312 28.8242C506.588 28.8242 507.226 27.9515 507.226 26.2061C507.226 24.4788 506.583 23.6152 505.298 23.6152C504.624 23.6152 504.134 23.8385 503.828 24.2852C503.528 24.7318 503.377 25.3721 503.377 26.2061ZM513.142 30.1367C512.199 30.1367 511.463 29.7949 510.934 29.1113C510.406 28.4277 510.141 27.4684 510.141 26.2334C510.141 24.9938 510.408 24.0299 510.941 23.3418C511.479 22.6491 512.222 22.3027 513.17 22.3027C514.163 22.3027 514.92 22.6696 515.439 23.4033H515.521C515.444 22.861 515.405 22.4326 515.405 22.1182V19.3633H517.018V30H515.761L515.48 29.0088H515.405C514.89 29.7607 514.136 30.1367 513.142 30.1367ZM513.573 28.8379C514.234 28.8379 514.715 28.6533 515.016 28.2842C515.316 27.9105 515.471 27.3066 515.48 26.4727V26.2471C515.48 25.2946 515.325 24.6178 515.016 24.2168C514.706 23.8158 514.22 23.6152 513.559 23.6152C512.994 23.6152 512.559 23.8454 512.254 24.3057C511.948 24.7614 511.796 25.4131 511.796 26.2607C511.796 27.0993 511.944 27.7396 512.24 28.1816C512.536 28.6191 512.981 28.8379 513.573 28.8379ZM522.477 30.1367C521.301 30.1367 520.381 29.7949 519.715 29.1113C519.055 28.4232 518.724 27.4775 518.724 26.2744C518.724 25.0394 519.032 24.0687 519.647 23.3623C520.262 22.6559 521.108 22.3027 522.183 22.3027C523.181 22.3027 523.97 22.6058 524.548 23.2119C525.127 23.818 525.417 24.652 525.417 25.7139V26.582H520.378C520.401 27.3158 520.599 27.8809 520.973 28.2773C521.347 28.6693 521.873 28.8652 522.552 28.8652C522.999 28.8652 523.414 28.8242 523.796 28.7422C524.184 28.6556 524.598 28.5143 525.041 28.3184V29.624C524.649 29.8109 524.252 29.943 523.851 30.0205C523.45 30.098 522.992 30.1367 522.477 30.1367ZM522.183 23.5195C521.673 23.5195 521.263 23.6813 520.953 24.0049C520.647 24.3285 520.465 24.8001 520.406 25.4199H523.837C523.828 24.7956 523.678 24.3239 523.386 24.0049C523.095 23.6813 522.694 23.5195 522.183 23.5195Z" fill="white"/>
<path d="M572.153 20.0059V26.4727C572.153 27.2109 571.994 27.8581 571.675 28.4141C571.36 28.9655 570.902 29.3916 570.301 29.6924C569.704 29.9886 568.988 30.1367 568.154 30.1367C566.915 30.1367 565.951 29.8086 565.263 29.1523C564.575 28.4961 564.23 27.5938 564.23 26.4453V20.0059H565.871V26.3291C565.871 27.154 566.062 27.7624 566.445 28.1543C566.828 28.5462 567.416 28.7422 568.209 28.7422C569.749 28.7422 570.52 27.9333 570.52 26.3154V20.0059H572.153ZM581.05 30H579.437V25.3516C579.437 24.7682 579.319 24.333 579.082 24.0459C578.849 23.7588 578.478 23.6152 577.967 23.6152C577.288 23.6152 576.792 23.8158 576.477 24.2168C576.163 24.6178 576.006 25.29 576.006 26.2334V30H574.399V22.4395H575.657L575.882 23.4307H575.964C576.192 23.0706 576.516 22.7926 576.935 22.5967C577.354 22.4007 577.819 22.3027 578.33 22.3027C580.144 22.3027 581.05 23.2256 581.05 25.0713V30ZM584.752 30H583.146V19.3633H584.752V30ZM593.622 26.2061C593.622 27.4411 593.305 28.4049 592.672 29.0977C592.038 29.7904 591.156 30.1367 590.026 30.1367C589.32 30.1367 588.696 29.9772 588.153 29.6582C587.611 29.3392 587.194 28.8812 586.902 28.2842C586.611 27.6872 586.465 26.9945 586.465 26.2061C586.465 24.9801 586.779 24.0231 587.408 23.335C588.037 22.6468 588.923 22.3027 590.067 22.3027C591.161 22.3027 592.027 22.6559 592.665 23.3623C593.303 24.0641 593.622 25.012 593.622 26.2061ZM588.119 26.2061C588.119 27.9515 588.764 28.8242 590.054 28.8242C591.33 28.8242 591.968 27.9515 591.968 26.2061C591.968 24.4788 591.325 23.6152 590.04 23.6152C589.365 23.6152 588.876 23.8385 588.57 24.2852C588.269 24.7318 588.119 25.3721 588.119 26.2061ZM598.383 30.1367C597.239 30.1367 596.369 29.804 595.772 29.1387C595.18 28.4688 594.883 27.5094 594.883 26.2607C594.883 24.9893 595.193 24.0117 595.813 23.3281C596.437 22.6445 597.337 22.3027 598.513 22.3027C599.311 22.3027 600.029 22.4508 600.667 22.7471L600.181 24.0391C599.502 23.7747 598.942 23.6426 598.5 23.6426C597.192 23.6426 596.538 24.5107 596.538 26.2471C596.538 27.0947 596.699 27.7327 597.023 28.1611C597.351 28.585 597.83 28.7969 598.459 28.7969C599.174 28.7969 599.851 28.6191 600.489 28.2637V29.665C600.202 29.8337 599.894 29.9544 599.566 30.0273C599.242 30.1003 598.848 30.1367 598.383 30.1367ZM603.678 26.0078L604.587 24.873L606.87 22.4395H608.723L605.681 25.6865L608.914 30H607.028L604.601 26.6846L603.719 27.4092V30H602.126V19.3633H603.719V24.5518L603.637 26.0078H603.678ZM613.666 30V20.0059H615.299V28.5986H619.531V30H613.666ZM622.549 30H620.943V22.4395H622.549V30ZM620.847 20.4365C620.847 20.1494 620.924 19.9284 621.079 19.7734C621.239 19.6185 621.464 19.541 621.756 19.541C622.039 19.541 622.257 19.6185 622.412 19.7734C622.572 19.9284 622.651 20.1494 622.651 20.4365C622.651 20.71 622.572 20.9264 622.412 21.0859C622.257 21.2409 622.039 21.3184 621.756 21.3184C621.464 21.3184 621.239 21.2409 621.079 21.0859C620.924 20.9264 620.847 20.71 620.847 20.4365ZM627.761 30.1367C626.618 30.1367 625.747 29.804 625.15 29.1387C624.558 28.4688 624.261 27.5094 624.261 26.2607C624.261 24.9893 624.571 24.0117 625.191 23.3281C625.816 22.6445 626.716 22.3027 627.891 22.3027C628.689 22.3027 629.407 22.4508 630.045 22.7471L629.559 24.0391C628.88 23.7747 628.32 23.6426 627.878 23.6426C626.57 23.6426 625.916 24.5107 625.916 26.2471C625.916 27.0947 626.078 27.7327 626.401 28.1611C626.729 28.585 627.208 28.7969 627.837 28.7969C628.552 28.7969 629.229 28.6191 629.867 28.2637V29.665C629.58 29.8337 629.272 29.9544 628.944 30.0273C628.621 30.1003 628.226 30.1367 627.761 30.1367ZM634.806 30.1367C633.63 30.1367 632.71 29.7949 632.044 29.1113C631.384 28.4232 631.053 27.4775 631.053 26.2744C631.053 25.0394 631.361 24.0687 631.976 23.3623C632.591 22.6559 633.437 22.3027 634.512 22.3027C635.51 22.3027 636.299 22.6058 636.877 23.2119C637.456 23.818 637.746 24.652 637.746 25.7139V26.582H632.707C632.73 27.3158 632.928 27.8809 633.302 28.2773C633.676 28.6693 634.202 28.8652 634.881 28.8652C635.328 28.8652 635.743 28.8242 636.125 28.7422C636.513 28.6556 636.927 28.5143 637.37 28.3184V29.624C636.978 29.8109 636.581 29.943 636.18 30.0205C635.779 30.098 635.321 30.1367 634.806 30.1367ZM634.512 23.5195C634.002 23.5195 633.592 23.6813 633.282 24.0049C632.976 24.3285 632.794 24.8001 632.735 25.4199H636.166C636.157 24.7956 636.007 24.3239 635.715 24.0049C635.424 23.6813 635.023 23.5195 634.512 23.5195ZM646.082 30H644.469V25.3516C644.469 24.7682 644.35 24.333 644.113 24.0459C643.881 23.7588 643.509 23.6152 642.999 23.6152C642.32 23.6152 641.823 23.8158 641.509 24.2168C641.194 24.6178 641.037 25.29 641.037 26.2334V30H639.431V22.4395H640.689L640.914 23.4307H640.996C641.224 23.0706 641.548 22.7926 641.967 22.5967C642.386 22.4007 642.851 22.3027 643.361 22.3027C645.175 22.3027 646.082 23.2256 646.082 25.0713V30ZM653.257 27.8467C653.257 28.585 652.988 29.1523 652.45 29.5488C651.912 29.9408 651.142 30.1367 650.139 30.1367C649.132 30.1367 648.323 29.984 647.713 29.6787V28.291C648.601 28.7012 649.428 28.9062 650.194 28.9062C651.183 28.9062 651.677 28.6077 651.677 28.0107C651.677 27.8193 651.623 27.6598 651.513 27.5322C651.404 27.4046 651.224 27.2725 650.973 27.1357C650.723 26.999 650.374 26.8441 649.927 26.6709C649.057 26.3337 648.467 25.9964 648.157 25.6592C647.852 25.3219 647.699 24.8844 647.699 24.3467C647.699 23.6995 647.959 23.1982 648.478 22.8428C649.002 22.4827 649.713 22.3027 650.611 22.3027C651.5 22.3027 652.341 22.4827 653.133 22.8428L652.614 24.0527C651.798 23.7155 651.112 23.5469 650.556 23.5469C649.709 23.5469 649.285 23.7884 649.285 24.2715C649.285 24.5085 649.394 24.709 649.613 24.873C649.836 25.0371 650.319 25.2627 651.062 25.5498C651.687 25.7913 652.14 26.0124 652.423 26.2129C652.705 26.4134 652.915 26.6458 653.051 26.9102C653.188 27.1699 653.257 27.4821 653.257 27.8467ZM656.466 30H654.86V22.4395H656.466V30ZM654.764 20.4365C654.764 20.1494 654.841 19.9284 654.996 19.7734C655.156 19.6185 655.381 19.541 655.673 19.541C655.956 19.541 656.174 19.6185 656.329 19.7734C656.489 19.9284 656.569 20.1494 656.569 20.4365C656.569 20.71 656.489 20.9264 656.329 21.0859C656.174 21.2409 655.956 21.3184 655.673 21.3184C655.381 21.3184 655.156 21.2409 654.996 21.0859C654.841 20.9264 654.764 20.71 654.764 20.4365ZM665.281 30H663.668V25.3516C663.668 24.7682 663.549 24.333 663.312 24.0459C663.08 23.7588 662.709 23.6152 662.198 23.6152C661.519 23.6152 661.022 23.8158 660.708 24.2168C660.394 24.6178 660.236 25.29 660.236 26.2334V30H658.63V22.4395H659.888L660.113 23.4307H660.195C660.423 23.0706 660.747 22.7926 661.166 22.5967C661.585 22.4007 662.05 22.3027 662.561 22.3027C664.374 22.3027 665.281 23.2256 665.281 25.0713V30ZM673.761 22.4395V23.3213L672.469 23.5605C672.588 23.7201 672.686 23.916 672.763 24.1484C672.841 24.3809 672.879 24.627 672.879 24.8867C672.879 25.666 672.611 26.279 672.073 26.7256C671.535 27.1722 670.795 27.3955 669.851 27.3955C669.61 27.3955 669.391 27.3773 669.195 27.3408C668.849 27.555 668.675 27.8057 668.675 28.0928C668.675 28.266 668.755 28.3958 668.915 28.4824C669.079 28.569 669.377 28.6123 669.81 28.6123H671.129C671.963 28.6123 672.597 28.79 673.03 29.1455C673.463 29.501 673.679 30.0137 673.679 30.6836C673.679 31.5404 673.326 32.2012 672.62 32.666C671.913 33.1309 670.893 33.3633 669.557 33.3633C668.527 33.3633 667.741 33.181 667.199 32.8164C666.657 32.4518 666.385 31.9323 666.385 31.2578C666.385 30.793 666.531 30.401 666.823 30.082C667.119 29.7676 667.532 29.5488 668.06 29.4258C667.846 29.3346 667.668 29.1888 667.527 28.9883C667.39 28.7832 667.322 28.569 667.322 28.3457C667.322 28.0632 667.402 27.8239 667.561 27.6279C667.721 27.432 667.958 27.2383 668.272 27.0469C667.88 26.8783 667.561 26.6048 667.315 26.2266C667.074 25.8438 666.953 25.3971 666.953 24.8867C666.953 24.0664 667.21 23.4307 667.725 22.9795C668.245 22.5283 668.983 22.3027 669.94 22.3027C670.154 22.3027 670.378 22.3187 670.61 22.3506C670.847 22.3779 671.025 22.4076 671.143 22.4395H673.761ZM667.821 31.1758C667.821 31.5221 667.976 31.7887 668.286 31.9756C668.6 32.1624 669.04 32.2559 669.605 32.2559C670.48 32.2559 671.132 32.1305 671.56 31.8799C671.989 31.6292 672.203 31.2965 672.203 30.8818C672.203 30.5537 672.084 30.319 671.847 30.1777C671.615 30.041 671.18 29.9727 670.542 29.9727H669.325C668.865 29.9727 668.498 30.0798 668.224 30.2939C667.955 30.5127 667.821 30.8066 667.821 31.1758ZM668.511 24.8867C668.511 25.3607 668.632 25.7253 668.874 25.9805C669.12 26.2357 669.471 26.3633 669.926 26.3633C670.856 26.3633 671.321 25.8665 671.321 24.873C671.321 24.3809 671.205 24.0026 670.972 23.7383C670.744 23.4694 670.396 23.335 669.926 23.335C669.462 23.335 669.108 23.4671 668.867 23.7314C668.63 23.9958 668.511 24.3809 668.511 24.8867Z" fill="white"/>
<path d="M27.9783 21.1443C28.2529 21.4188 28.2529 21.8643 27.9783 22.1388L23.2614 26.8557C22.9868 27.1303 22.5417 27.1303 22.2668 26.8557L20.0214 24.61C19.7468 24.3354 19.7468 23.8903 20.0214 23.6157C20.2959 23.3412 20.741 23.3412 21.0156 23.6157L22.7639 25.3641L26.9837 21.1439C27.2586 20.8697 27.7041 20.8697 27.9783 21.1443ZM33 24C33 28.9746 28.9739 33 24 33C19.0254 33 15 28.9739 15 24C15 19.0254 19.0261 15 24 15C28.9746 15 33 19.0261 33 24ZM31.5938 24C31.5938 19.8027 28.197 16.4062 24 16.4062C19.8027 16.4062 16.4062 19.803 16.4062 24C16.4062 28.1973 19.803 31.5938 24 31.5938C28.1973 31.5938 31.5938 28.197 31.5938 24Z" fill="white"/>
<rect y="46" width="794" height="4" fill="#1BE08B"/>
<g clip-path="url(#clip2)">
<path d="M947.957 20.5331C947.957 19.9156 948.477 19.4052 949.107 19.4052C949.737 19.4052 950.258 19.9156 950.258 20.5331C950.258 21.1507 949.737 21.6611 949.107 21.6611C948.477 21.6625 947.957 21.1507 947.957 20.5331ZM947.957 24.5727C947.957 23.9552 948.477 23.4448 949.107 23.4448C949.737 23.4448 950.258 23.9552 950.258 24.5727C950.258 25.1903 949.737 25.7007 949.107 25.7007C948.477 25.7007 947.957 25.1903 947.957 24.5727Z" fill="#007EFF"/>
<path d="M937.787 26.4847L936.453 24.2442L935.118 26.4847H933.059L935.423 22.5029L933.172 18.7213H935.232L936.454 20.7728L937.676 18.7213H939.736L937.485 22.5029L939.849 26.4847H937.787Z" fill="white"/>
<path d="M939.902 24.7208L941.463 23.8339C941.746 24.4769 942.232 24.9097 943.125 24.9097C943.985 24.9097 944.199 24.577 944.199 24.2781C944.199 23.8015 943.746 23.6126 942.558 23.2911C941.382 22.9696 940.229 22.4155 940.229 20.9294C940.229 19.4319 941.519 18.5676 942.886 18.5676C944.188 18.5676 945.206 19.1782 945.782 20.3202L944.255 21.1958C943.983 20.6417 943.611 20.2977 942.886 20.2977C942.321 20.2977 942.038 20.5754 942.038 20.8856C942.038 21.241 942.231 21.4849 943.463 21.8501C944.662 22.2054 946.008 22.6157 946.008 24.2569C946.008 25.7543 944.786 26.6412 943.067 26.6412C941.407 26.6398 940.344 25.8629 939.902 24.7208Z" fill="white"/>
<path d="M932.833 31.9484C932.833 29.6642 934.563 27.9116 936.95 27.9116C938.387 27.9116 939.654 28.6109 940.344 29.7079L938.784 30.5948C938.433 29.9955 937.754 29.6416 936.952 29.6416C935.549 29.6416 934.643 30.5624 934.643 31.9484C934.643 33.3344 935.548 34.2551 936.952 34.2551C937.754 34.2551 938.444 33.8998 938.784 33.302L940.344 34.1888C939.665 35.2872 938.398 35.9852 936.95 35.9852C934.563 35.9852 932.833 34.234 932.833 31.9484Z" fill="white"/>
<path d="M940.739 31.9484C940.739 29.6642 942.583 27.9116 944.856 27.9116C947.13 27.9116 948.973 29.6642 948.973 31.9484C948.973 34.2326 947.13 35.9852 944.856 35.9852C942.583 35.9852 940.739 34.234 940.739 31.9484ZM947.164 31.9484C947.164 30.5624 946.146 29.6416 944.856 29.6416C943.566 29.6416 942.548 30.5624 942.548 31.9484C942.548 33.3344 943.566 34.2551 944.856 34.2551C946.146 34.2551 947.164 33.3344 947.164 31.9484Z" fill="white"/>
<path d="M957.005 31.9484C957.005 34.1437 955.343 35.8301 953.16 35.8301H949.993V28.0667H953.16C955.343 28.0667 957.005 29.7531 957.005 31.9484ZM955.263 31.9484C955.263 30.6174 954.403 29.7742 953.16 29.7742H951.802V34.1212H953.16C954.403 34.1226 955.263 33.2794 955.263 31.9484Z" fill="white"/>
<path d="M963 34.1226V35.8301H958.023V28.0667H962.944V29.7742H959.833V31.0615H962.662V32.7479H959.833V34.1226H963Z" fill="white"/>
<path d="M925.347 34.4271V30.4002C925.347 29.0396 924.566 27.9877 923.322 28.1301V25.7332C924.566 25.8742 925.347 24.8138 925.347 23.4532V19.4263C925.347 15.7406 927.532 16.0043 929.695 16.0043V18.0093C928.451 17.8668 927.671 18.0657 927.671 19.4277V23.4546C927.671 25.0141 927.179 26.2055 926.138 26.9147C927.179 27.6521 927.671 28.8436 927.671 30.403V34.4299C927.671 35.7906 928.451 35.9894 929.695 35.8484V38.0028C927.82 38 925.347 38.1128 925.347 34.4271Z" fill="white"/>
<path d="M915 38.0003V35.8458C916.244 35.9882 917.025 35.7894 917.025 34.4274V30.4004C917.025 28.841 917.517 27.6496 918.558 26.9121C917.517 26.2029 917.025 25.0129 917.025 23.452V19.4265C917.025 18.0659 916.244 17.8671 915 18.0081V16.0045C917.163 16.0045 919.349 15.7408 919.349 19.4265V23.4535C919.349 24.8141 920.129 25.8744 921.373 25.7334V28.1304C920.129 27.9894 919.349 29.0398 919.349 30.4004V34.4274C919.349 38.1131 916.875 38.0003 915 38.0003Z" fill="white"/>
</g>
<path d="M855.801 30L855.031 27.859H852.083L851.329 30H850L852.885 22.2586H854.256L857.14 30H855.801ZM854.699 26.7727L853.976 24.6738C853.923 24.5332 853.85 24.3117 853.755 24.0094C853.663 23.707 853.6 23.4855 853.565 23.3449C853.47 23.7773 853.331 24.2502 853.148 24.7635L852.452 26.7727H854.699ZM858.977 30L856.762 24.1676H858.07L859.257 27.5584C859.46 28.1279 859.584 28.5885 859.626 28.94H859.668C859.7 28.6869 859.823 28.2264 860.037 27.5584L861.224 24.1676H862.542L860.317 30H858.977ZM866.699 30L866.451 29.1879H866.409C866.128 29.543 865.845 29.7855 865.56 29.9156C865.275 30.0422 864.91 30.1055 864.463 30.1055C863.89 30.1055 863.442 29.9508 863.118 29.6414C862.798 29.332 862.639 28.8943 862.639 28.3283C862.639 27.7271 862.862 27.2736 863.308 26.9678C863.755 26.6619 864.435 26.4949 865.349 26.4668L866.356 26.4352V26.124C866.356 25.7514 866.268 25.4736 866.093 25.2908C865.92 25.1045 865.651 25.0113 865.286 25.0113C864.987 25.0113 864.7 25.0553 864.426 25.1432C864.152 25.2311 863.888 25.3348 863.635 25.4543L863.234 24.5684C863.551 24.4031 863.897 24.2783 864.273 24.1939C864.649 24.1061 865.005 24.0621 865.339 24.0621C866.08 24.0621 866.639 24.2238 867.015 24.5473C867.395 24.8707 867.585 25.3787 867.585 26.0713V30H866.699ZM864.853 29.1562C865.303 29.1562 865.664 29.0314 865.934 28.7818C866.209 28.5287 866.346 28.1754 866.346 27.7219V27.2156L865.597 27.2473C865.013 27.2684 864.588 27.3668 864.321 27.5426C864.057 27.7148 863.925 27.9803 863.925 28.3389C863.925 28.599 864.003 28.8012 864.157 28.9453C864.312 29.0859 864.544 29.1562 864.853 29.1562ZM870.176 30H868.937V24.1676H870.176V30ZM868.863 22.6225C868.863 22.401 868.923 22.2305 869.042 22.1109C869.165 21.9914 869.339 21.9316 869.564 21.9316C869.782 21.9316 869.951 21.9914 870.07 22.1109C870.194 22.2305 870.255 22.401 870.255 22.6225C870.255 22.8334 870.194 23.0004 870.07 23.1234C869.951 23.243 869.782 23.3027 869.564 23.3027C869.339 23.3027 869.165 23.243 869.042 23.1234C868.923 23.0004 868.863 22.8334 868.863 22.6225ZM872.814 30H871.575V21.7945H872.814V30ZM877.863 30L877.615 29.1879H877.573C877.291 29.543 877.008 29.7855 876.724 29.9156C876.439 30.0422 876.073 30.1055 875.627 30.1055C875.054 30.1055 874.606 29.9508 874.282 29.6414C873.962 29.332 873.802 28.8943 873.802 28.3283C873.802 27.7271 874.025 27.2736 874.472 26.9678C874.918 26.6619 875.599 26.4949 876.513 26.4668L877.52 26.4352V26.124C877.52 25.7514 877.432 25.4736 877.256 25.2908C877.084 25.1045 876.815 25.0113 876.449 25.0113C876.151 25.0113 875.864 25.0553 875.59 25.1432C875.316 25.2311 875.052 25.3348 874.799 25.4543L874.398 24.5684C874.714 24.4031 875.061 24.2783 875.437 24.1939C875.813 24.1061 876.168 24.0621 876.502 24.0621C877.244 24.0621 877.803 24.2238 878.179 24.5473C878.559 24.8707 878.749 25.3787 878.749 26.0713V30H877.863ZM876.017 29.1562C876.467 29.1562 876.827 29.0314 877.098 28.7818C877.372 28.5287 877.509 28.1754 877.509 27.7219V27.2156L876.761 27.2473C876.177 27.2684 875.752 27.3668 875.484 27.5426C875.221 27.7148 875.089 27.9803 875.089 28.3389C875.089 28.599 875.166 28.8012 875.321 28.9453C875.476 29.0859 875.708 29.1562 876.017 29.1562ZM883.08 24.0621C883.808 24.0621 884.374 24.3258 884.778 24.8531C885.186 25.3805 885.39 26.1205 885.39 27.0732C885.39 28.0295 885.184 28.7748 884.773 29.3092C884.361 29.84 883.79 30.1055 883.059 30.1055C882.32 30.1055 881.747 29.84 881.34 29.3092H881.255L881.028 30H880.1V21.7945H881.34V23.7457C881.34 23.8898 881.333 24.1043 881.319 24.3891C881.304 24.6738 881.294 24.8549 881.287 24.9322H881.34C881.733 24.3521 882.313 24.0621 883.08 24.0621ZM882.758 25.0746C882.259 25.0746 881.899 25.2223 881.677 25.5176C881.459 25.8094 881.347 26.2998 881.34 26.9889V27.0732C881.34 27.7834 881.452 28.2984 881.677 28.6184C881.902 28.9348 882.27 29.093 882.779 29.093C883.219 29.093 883.551 28.9189 883.776 28.5709C884.004 28.2229 884.119 27.7201 884.119 27.0627C884.119 25.7373 883.665 25.0746 882.758 25.0746ZM887.691 30H886.451V21.7945H887.691V30ZM891.637 30.1055C890.73 30.1055 890.02 29.8418 889.506 29.3145C888.997 28.7836 888.742 28.0541 888.742 27.126C888.742 26.1732 888.979 25.4244 889.454 24.8795C889.928 24.3346 890.58 24.0621 891.41 24.0621C892.18 24.0621 892.788 24.2959 893.235 24.7635C893.681 25.2311 893.904 25.8744 893.904 26.6936V27.3633H890.018C890.035 27.9293 890.188 28.3652 890.477 28.6711C890.765 28.9734 891.171 29.1246 891.695 29.1246C892.039 29.1246 892.359 29.093 892.655 29.0297C892.953 28.9629 893.273 28.8539 893.614 28.7027V29.71C893.312 29.8541 893.006 29.9561 892.697 30.0158C892.387 30.0756 892.034 30.1055 891.637 30.1055ZM891.41 25.0008C891.016 25.0008 890.7 25.1256 890.461 25.3752C890.225 25.6248 890.085 25.9887 890.039 26.4668H892.686C892.679 25.9852 892.563 25.6213 892.338 25.3752C892.113 25.1256 891.804 25.0008 891.41 25.0008ZM902.535 27.0732C902.535 28.026 902.291 28.7695 901.802 29.3039C901.313 29.8383 900.633 30.1055 899.761 30.1055C899.216 30.1055 898.735 29.9824 898.316 29.7363C897.898 29.4902 897.576 29.1369 897.351 28.6764C897.126 28.2158 897.014 27.6814 897.014 27.0732C897.014 26.1275 897.256 25.3893 897.741 24.8584C898.227 24.3275 898.91 24.0621 899.793 24.0621C900.637 24.0621 901.305 24.3346 901.797 24.8795C902.289 25.4209 902.535 26.1521 902.535 27.0732ZM898.29 27.0732C898.29 28.4197 898.787 29.093 899.782 29.093C900.767 29.093 901.259 28.4197 901.259 27.0732C901.259 25.7408 900.763 25.0746 899.772 25.0746C899.251 25.0746 898.874 25.2469 898.638 25.5914C898.406 25.9359 898.29 26.4299 898.29 27.0732ZM908.717 30H907.473V26.4141C907.473 25.9641 907.381 25.6283 907.198 25.4068C907.019 25.1854 906.733 25.0746 906.339 25.0746C905.815 25.0746 905.432 25.2293 905.189 25.5387C904.947 25.848 904.825 26.3666 904.825 27.0943V30H903.586V24.1676H904.556L904.73 24.9322H904.794C904.97 24.6545 905.219 24.44 905.543 24.2889C905.866 24.1377 906.225 24.0621 906.618 24.0621C908.018 24.0621 908.717 24.774 908.717 26.1979V30Z" fill="white"/>
<rect x="711.5" y="15.5" width="82" height="21" rx="10.5" fill="white"/>
<path d="M727.605 25.4184H728.143C728.646 25.4184 729.022 25.3199 729.271 25.123C729.521 24.9227 729.646 24.6326 729.646 24.2529C729.646 23.8697 729.54 23.5867 729.329 23.4039C729.122 23.2211 728.795 23.1297 728.349 23.1297H727.605V25.4184ZM731.296 24.1949C731.296 25.0246 731.036 25.6592 730.516 26.0986C729.999 26.5381 729.263 26.7578 728.306 26.7578H727.605V29.5H725.97V21.7902H728.433C729.368 21.7902 730.078 21.9924 730.563 22.3967C731.052 22.7975 731.296 23.3969 731.296 24.1949ZM734.387 25.2127H734.914C735.431 25.2127 735.812 25.1266 736.058 24.9543C736.304 24.782 736.428 24.5113 736.428 24.1422C736.428 23.7766 736.301 23.5164 736.048 23.3617C735.798 23.207 735.41 23.1297 734.882 23.1297H734.387V25.2127ZM734.387 26.5416V29.5H732.752V21.7902H734.998C736.046 21.7902 736.821 21.9818 737.324 22.365C737.827 22.7447 738.078 23.323 738.078 24.1C738.078 24.5535 737.953 24.9578 737.704 25.3129C737.454 25.6645 737.101 25.9404 736.644 26.1408C737.804 27.874 738.56 28.9937 738.911 29.5H737.097L735.257 26.5416H734.387ZM739.882 29.5V21.7902H741.516V29.5H739.882ZM746.732 23.04C746.117 23.04 745.64 23.2721 745.303 23.7361C744.965 24.1967 744.796 24.84 744.796 25.6662C744.796 27.3854 745.442 28.2449 746.732 28.2449C747.273 28.2449 747.929 28.1096 748.699 27.8389V29.21C748.066 29.4736 747.359 29.6055 746.579 29.6055C745.457 29.6055 744.6 29.2662 744.005 28.5877C743.411 27.9057 743.114 26.9283 743.114 25.6557C743.114 24.8541 743.26 24.1527 743.552 23.5516C743.844 22.9469 744.262 22.4846 744.807 22.1646C745.355 21.8412 745.997 21.6795 746.732 21.6795C747.481 21.6795 748.233 21.8605 748.989 22.2227L748.462 23.5516C748.173 23.4145 747.883 23.2949 747.591 23.193C747.3 23.091 747.013 23.04 746.732 23.04ZM750.344 29.5V21.7902H751.979V29.5H750.344ZM760.759 29.5H758.681L755.328 23.6676H755.28C755.347 24.6977 755.38 25.4324 755.38 25.8719V29.5H753.92V21.7902H755.981L759.33 27.5646H759.367C759.314 26.5627 759.288 25.8543 759.288 25.4395V21.7902H760.759V29.5ZM765.632 25.1705H768.69V29.1678C768.195 29.3295 767.727 29.442 767.288 29.5053C766.852 29.5721 766.405 29.6055 765.948 29.6055C764.785 29.6055 763.895 29.2645 763.28 28.5824C762.668 27.8969 762.362 26.9143 762.362 25.6346C762.362 24.39 762.717 23.4197 763.428 22.7236C764.141 22.0275 765.129 21.6795 766.391 21.6795C767.182 21.6795 767.945 21.8377 768.68 22.1541L768.137 23.4619C767.574 23.1807 766.989 23.04 766.381 23.04C765.674 23.04 765.108 23.2773 764.683 23.752C764.257 24.2266 764.045 24.8646 764.045 25.6662C764.045 26.5029 764.215 27.1428 764.556 27.5857C764.901 28.0252 765.4 28.2449 766.054 28.2449C766.395 28.2449 766.741 28.2098 767.093 28.1395V26.5311H765.632V25.1705Z" fill="#007EFF"/>
<path d="M773.583 22.1793L774.697 21L779.417 26L774.697 31L773.583 29.8207L777.19 26L773.583 22.1793Z" fill="#007EFF"/>
<rect x="711.5" y="15.5" width="82" height="21" rx="10.5" stroke="white"/>
</g>
<defs>
<clipPath id="clip0">
<rect width="980" height="50" fill="white"/>
</clipPath>
<clipPath id="clip1">
<rect x="-50" y="-344" width="1113" height="809" fill="white"/>
</clipPath>
<clipPath id="clip2">
<path d="M915 16H963V38H915V16Z" fill="white"/>
</clipPath>
</defs>
</svg>
